<svg width="24" height="24" viewBox="0 0 24 24" fill="none" xmlns="http://www.w3.org/2000/svg">
<path d="M12 21C16.9706 21 21 16.9706 21 12C21 7.02944 16.9706 3 12 3C7.02944 3 3 7.02944 3 12C3 16.9706 7.02944 21 12 21Z" stroke="white" stroke-width="2" stroke-linecap="round" stroke-linejoin="round"/>
<path d="M8 4V6C8 6.53043 8.21071 7.03914 8.58579 7.41421C8.96086 7.78929 9.46957 8 10 8H11C11.5304 8 12.0391 8.21071 12.4142 8.58579C12.7893 8.96086 13 9.46957 13 10C13 10.5304 13.2107 11.0391 13.5858 11.4142C13.9609 11.7893 14.4696 12 15 12C15.5304 12 16.0391 11.7893 16.4142 11.4142C16.7893 11.0391 17 10.5304 17 10C17 9.46957 17.2107 8.96086 17.5858 8.58579C17.9609 8.21071 18.4696 8 19 8H20M20 16H17C16.4696 16 15.9609 16.2107 15.5858 16.5858C15.2107 16.9609 15 17.4696 15 18V20M11 20V18C11 17.4696 10.7893 16.9609 10.4142 16.5858C10.0391 16.2107 9.53043 16 9 16C8.46957 16 7.96086 15.7893 7.58579 15.4142C7.21071 15.0391 7 14.5304 7 14C7 13.4696 6.78929 12.9609 6.41421 12.5858C6.03914 12.2107 5.53043 12 5 12H3" stroke="white" stroke-width="2" stroke-linecap="round" stroke-linejoin="round"/>
</svg>
