<svg width="29" height="28" viewBox="0 0 29 28" fill="none" xmlns="http://www.w3.org/2000/svg">
<g clip-path="url(#clip0_14_134)">
<path d="M20.3785 4.24692C19.9677 1.60444 17.6658 0 14.165 0C10.6642 0 8.36226 1.60444 7.9514 4.24692C6.15633 5.94827 5.13037 8.32482 5.13037 10.7992V27.3607C5.13037 27.7138 5.41657 28 5.76964 28C6.12271 28 6.40891 27.7138 6.40891 27.3607V10.7992C6.40891 9.15824 6.93484 7.56716 7.88486 6.25474V12.8893C7.88486 14.3811 8.4081 15.7528 9.28019 16.8314C9.294 16.8506 9.30908 16.8691 9.32519 16.887C10.4781 18.2802 12.2197 19.1694 14.165 19.1694C16.0965 19.1694 17.8267 18.2928 18.9797 16.9167C19.0131 16.8841 19.042 16.8483 19.0667 16.8105C19.9287 15.7352 20.4452 14.3715 20.4452 12.8893V6.25474C21.3952 7.56716 21.9211 9.15824 21.9211 10.7992V27.3607C21.9211 27.7138 22.2073 28 22.5604 28C22.9134 28 23.1996 27.7138 23.1996 27.3607V10.7992C23.1996 8.32482 22.1736 5.94827 20.3785 4.24692ZM9.16333 5.12592C9.16333 1.65341 12.6612 1.27854 14.165 1.27854C15.6689 1.27854 19.1666 1.65341 19.1666 5.12592V12.8893C19.1666 13.8218 18.9093 14.6952 18.463 15.4433C17.3052 14.3377 15.7789 13.7167 14.165 13.7167C12.5513 13.7167 11.0248 14.3377 9.86697 15.4434C9.4207 14.6953 9.16339 13.8219 9.16339 12.8893V5.12592H9.16333ZM10.6615 16.4543C11.593 15.5213 12.8427 14.9952 14.165 14.9952C15.4874 14.9952 16.7371 15.5213 17.6685 16.4543C16.7654 17.342 15.5283 17.8909 14.165 17.8909C12.8017 17.8908 11.5647 17.3419 10.6615 16.4543Z" fill="#111111"/>
</g>
<defs>
<clipPath id="clip0_14_134">
<rect width="28" height="28" fill="white" transform="translate(0.165039)"/>
</clipPath>
</defs>
</svg>
