<svg width="29" height="28" viewBox="0 0 29 28" fill="none" xmlns="http://www.w3.org/2000/svg">
<g clip-path="url(#clip0_85_5)">
<path d="M26.9378 17.2401C26.809 16.5593 26.6331 15.8827 26.4313 15.2273C26.4303 15.2233 26.4297 15.2193 26.4286 15.2153C26.4247 15.2015 26.4199 15.1882 26.4151 15.1748C25.8479 13.3481 25.0819 11.6912 24.5684 10.5811L24.5552 10.5527C23.5106 8.29432 21.566 4.09052 22.1999 0.702441C22.2603 0.380386 22.048 0.0705505 21.726 0.0102801C21.4039 -0.0499903 21.0941 0.162202 21.0338 0.484257C20.3301 4.24475 22.3782 8.67214 23.4785 11.0507L23.4917 11.0793C23.9635 12.0993 24.5926 13.4597 25.1019 14.964C18.1487 16.7931 10.8413 16.7931 3.88811 14.964C4.39744 13.4597 5.02655 12.0992 5.49839 11.0791L5.5115 11.0507C6.61179 8.67208 8.65986 4.24463 7.95619 0.484198C7.89592 0.162143 7.58608 -0.0504649 7.26403 0.0102208C6.94197 0.0704912 6.72972 0.380326 6.79005 0.702381C7.42402 4.09046 5.47941 8.2942 4.43476 10.5526L4.42147 10.5812C3.90769 11.6921 3.14084 13.3507 2.57361 15.1791C2.56946 15.1911 2.56501 15.2029 2.56157 15.2152C2.56056 15.2188 2.56009 15.2223 2.5592 15.2258C2.35727 15.8817 2.1812 16.5587 2.0523 17.24C1.17167 21.8954 1.72253 25.4275 2.33965 27.5706C2.41451 27.8307 2.65174 27.9998 2.90943 27.9998C2.96377 27.9998 3.01906 27.9923 3.07387 27.9765C3.38869 27.8859 3.57039 27.5572 3.47974 27.2424C2.9579 25.4301 2.48837 22.5565 3.00256 18.7871C7.52516 18.9956 11.4919 21.7656 13.2401 25.9685L13.0582 27.3278C13.0149 27.6526 13.2428 27.9511 13.5676 27.9945C13.5943 27.9981 13.6207 27.9998 13.647 27.9998C13.9397 27.9998 14.1944 27.7832 14.2342 27.4852L14.3683 26.4829H14.6219L14.7559 27.4852C14.7959 27.7832 15.0505 27.9998 15.3432 27.9998C15.3693 27.9998 15.3959 27.9981 15.4226 27.9945C15.7473 27.9511 15.9753 27.6526 15.9319 27.3278L15.7501 25.9685C17.4983 21.7656 21.4649 18.9956 25.9876 18.7871C26.5018 22.5565 26.0323 25.4301 25.5104 27.2424C25.4198 27.5572 25.6015 27.8859 25.9163 27.9765C25.9712 27.9924 26.0264 27.9998 26.0807 27.9998C26.3384 27.9998 26.5757 27.8306 26.6505 27.5706C27.2676 25.4276 27.8184 21.8956 26.9378 17.2401ZM19.2295 19.8633C17.249 21.2325 15.7056 23.1051 14.7466 25.2966H14.2436C13.2845 23.1051 11.7412 21.2325 9.76068 19.8633C7.81044 18.515 5.55219 17.7424 3.19127 17.6088C3.20034 17.5593 3.20871 17.5104 3.21814 17.4606C3.30492 17.0017 3.41372 16.5461 3.53788 16.0983C7.12877 17.0475 10.8119 17.523 14.4952 17.523C18.1784 17.523 21.8615 17.0475 25.4523 16.0983C25.5765 16.5461 25.6852 17.0017 25.7721 17.4606C25.7815 17.5104 25.7899 17.5593 25.799 17.6088C23.4379 17.7424 21.1797 18.5151 19.2295 19.8633Z" fill="#111111"/>
<path d="M14.495 9.08022C14.6614 9.08022 14.8178 9.01544 14.9355 8.89775C15.1784 8.65489 15.1784 8.25981 14.9354 8.01689C14.8179 7.89925 14.6614 7.83447 14.495 7.83447C14.3286 7.83447 14.1723 7.89925 14.0546 8.01695C13.8117 8.25981 13.8117 8.65489 14.0546 8.89781C14.1723 9.01544 14.3286 9.08022 14.495 9.08022Z" fill="#111111"/>
</g>
<defs>
<clipPath id="clip0_85_5">
<rect width="28" height="28" fill="white" transform="translate(0.494995)"/>
</clipPath>
</defs>
</svg>
