<svg width="123" height="26" viewBox="0 0 123 26" fill="none" xmlns="http://www.w3.org/2000/svg">
<path d="M10.1629 3.48486L12.5183 10.9287L20.3257 10.8687L13.9736 15.4089L16.4436 22.8158L10.1629 18.178L3.88219 22.8158L6.35141 15.4089L0 10.8687L7.80742 10.9287L10.1629 3.48486Z" fill="#5A3F18"/>
<path d="M35.8313 3.48486L38.1868 10.9287L45.9942 10.8687L39.642 15.4089L42.112 22.8158L35.8313 18.178L29.5506 22.8158L32.0199 15.4089L25.6685 10.8687L33.4759 10.9287L35.8313 3.48486Z" fill="#5A3F18"/>
<path d="M61.5 3.48486L63.8555 10.9287L71.6629 10.8687L65.3107 15.4089L67.7807 22.8158L61.5 18.178L55.2193 22.8158L57.6893 15.4089L51.3372 10.8687L59.1446 10.9287L61.5 3.48486Z" fill="#5A3F18"/>
<path d="M87.1685 3.48486L89.5239 10.9287L97.3314 10.8687L90.98 15.4089L93.4492 22.8158L87.1685 18.178L80.8878 22.8158L83.3578 15.4089L77.0056 10.8687L84.813 10.9287L87.1685 3.48486Z" fill="#5A3F18"/>
<path d="M112.837 3.48486L115.193 10.9287L123 10.8687L116.649 15.4089L119.118 22.8158L112.837 18.178L106.557 22.8158L109.026 15.4089L102.674 10.8687L110.482 10.9287L112.837 3.48486Z" fill="#5A3F18"/>
</svg>
