<svg width="44" height="44" viewBox="0 0 44 44" fill="none" xmlns="http://www.w3.org/2000/svg">
<path d="M32.1459 32.8645C31.9692 33.0412 31.7734 33.1437 31.524 33.1886C30.6153 33.1593 29.8159 32.3346 28.8932 31.38C27.3775 29.8119 25.33 27.694 22.0001 29.5485C18.6698 27.694 16.6225 29.812 15.1069 31.38C14.1841 32.3346 13.3848 33.1595 12.4759 33.1886C12.2265 33.1438 12.0308 33.0413 11.8541 32.8645C11.4654 32.4758 10.8351 32.4758 10.4463 32.8645C10.0576 33.2531 10.0576 33.8835 10.4464 34.2724C11.0201 34.8461 11.6566 35.0997 12.3232 35.1769C12.3243 35.177 12.3253 35.1771 12.3264 35.1773C13.1636 35.2734 14.0481 35.0912 14.9162 34.9118C15.7447 34.7408 16.6013 34.564 17.5324 34.564C18.2274 34.564 18.7112 34.8633 19.3238 35.2423C20.032 35.6802 20.8347 36.1767 22.0001 36.1767C23.1655 36.1767 23.9681 35.6803 24.6763 35.2423C25.289 34.8633 25.7728 34.564 26.4677 34.564C27.3988 34.564 28.2555 34.7408 29.0838 34.9118C30.6448 35.2344 32.2589 35.5675 33.5539 34.2725C33.9426 33.8838 33.9426 33.2535 33.5539 32.8645C33.1651 32.4758 32.5349 32.4757 32.1459 32.8645ZM23.6289 33.5488C23.0538 33.9046 22.5994 34.1856 22 34.1856C21.4005 34.1856 20.9462 33.9046 20.371 33.5488C19.6681 33.114 18.7932 32.5729 17.5324 32.5729C17.2419 32.5729 16.9604 32.5867 16.6873 32.6099C18.3289 30.9241 19.3376 30.1464 21.4508 31.5437C21.7839 31.7639 22.2162 31.7639 22.549 31.5437C24.6623 30.1464 25.671 30.9241 27.3125 32.6099C27.0393 32.5867 26.7579 32.5729 26.4675 32.5729C25.2067 32.573 24.3319 33.114 23.6289 33.5488Z" fill="#5A3F18"/>
<path d="M34.2954 3.7876C28.9442 3.7876 24.5908 8.14102 24.5908 13.4922C24.5908 18.8433 28.9442 23.1968 34.2954 23.1968C39.6466 23.1968 44.0001 18.8433 44.0001 13.4922C44.0001 8.14102 39.6466 3.7876 34.2954 3.7876ZM34.2954 21.2059C30.042 21.2059 26.5817 17.7456 26.5817 13.4922C26.5817 9.23878 30.0421 5.77851 34.2954 5.77851C38.5489 5.77851 42.0091 9.23887 42.0091 13.4922C42.0091 17.7457 38.5487 21.2059 34.2954 21.2059Z" fill="#5A3F18"/>
<path d="M34.2953 15.7754C33.7456 15.7754 33.2998 16.2211 33.2998 16.7709V17.4881C33.2998 18.0379 33.7456 18.4836 34.2953 18.4836C34.8451 18.4836 35.2908 18.0379 35.2908 17.4881V16.7709C35.2907 16.2211 34.845 15.7754 34.2953 15.7754Z" fill="#5A3F18"/>
<path d="M38.4033 13.7803L37.7212 13.5587C37.198 13.3883 36.6366 13.675 36.4669 14.198C36.2971 14.7209 36.5833 15.2824 37.1062 15.4522L37.7884 15.6738C37.8905 15.7071 37.9941 15.7228 38.0961 15.7228C38.5158 15.7228 38.9062 15.4552 39.0427 15.0346C39.2124 14.5116 38.9262 13.9501 38.4033 13.7803Z" fill="#5A3F18"/>
<path d="M37.028 11.4247L37.4495 10.8444C37.7726 10.3996 37.674 9.77711 37.2291 9.45398C36.7844 9.13103 36.1618 9.22951 35.8386 9.67441L35.4171 10.2547C35.0939 10.6995 35.1926 11.322 35.6375 11.6451C35.8141 11.7734 36.0189 11.8352 36.2217 11.8352C36.5295 11.8352 36.8331 11.6927 37.028 11.4247Z" fill="#5A3F18"/>
<path d="M33.1735 10.2547L32.752 9.6745C32.4288 9.22943 31.8061 9.13103 31.3615 9.45407C30.9166 9.77719 30.8179 10.3998 31.1411 10.8445L31.5626 11.4248C31.7574 11.693 32.0609 11.8353 32.3689 11.8353C32.5718 11.8353 32.7765 11.7735 32.9531 11.6452C33.398 11.322 33.4966 10.6995 33.1735 10.2547Z" fill="#5A3F18"/>
<path d="M30.8696 13.5587L30.1874 13.7803C29.6645 13.9501 29.3783 14.5117 29.5481 15.0346C29.6846 15.4553 30.075 15.7228 30.4947 15.7228C30.5965 15.7228 30.7002 15.7071 30.8024 15.6738L31.4846 15.4522C32.0075 15.2824 32.2937 14.7208 32.1239 14.198C31.954 13.675 31.3925 13.3883 30.8696 13.5587Z" fill="#5A3F18"/>
<path d="M19.4094 13.4922C19.4094 8.14102 15.0559 3.7876 9.70475 3.7876C4.35359 3.7876 0 8.14102 0 13.4922C0 18.8433 4.35351 23.1968 9.70466 23.1968C15.0558 23.1968 19.4094 18.8433 19.4094 13.4922ZM9.70466 21.2059C5.45127 21.2059 1.99091 17.7457 1.99091 13.4922C1.99091 9.23878 5.45127 5.77851 9.70466 5.77851C13.9581 5.77851 17.4184 9.23887 17.4184 13.4922C17.4184 17.7457 13.9581 21.2059 9.70466 21.2059Z" fill="#5A3F18"/>
<path d="M9.70461 15.7754C9.15478 15.7754 8.70911 16.2211 8.70911 16.7709V17.4881C8.70911 18.0379 9.15478 18.4836 9.70461 18.4836C10.2544 18.4836 10.7001 18.0379 10.7001 17.4881V16.7709C10.7001 16.2211 10.2544 15.7754 9.70461 15.7754Z" fill="#5A3F18"/>
<path d="M13.8127 13.7802L13.1306 13.5585C12.6075 13.3886 12.0462 13.6749 11.8763 14.1978C11.7065 14.7207 11.9927 15.2823 12.5155 15.4521L13.1976 15.6737C13.2999 15.707 13.4034 15.7227 13.5054 15.7227C13.925 15.7227 14.3153 15.4551 14.452 15.0344C14.6217 14.5116 14.3354 13.95 13.8127 13.7802Z" fill="#5A3F18"/>
<path d="M12.4371 11.4248L12.8587 10.8446C13.1819 10.3998 13.0833 9.77722 12.6385 9.4541C12.1939 9.13097 11.5713 9.22954 11.2481 9.67427L10.8264 10.2545C10.5032 10.6993 10.6019 11.3219 11.0466 11.645C11.2233 11.7734 11.4281 11.8353 11.631 11.8353C11.9388 11.8353 12.2423 11.6929 12.4371 11.4248Z" fill="#5A3F18"/>
<path d="M8.58281 10.2546L8.1612 9.67437C7.83816 9.22955 7.21545 9.1309 6.77073 9.45419C6.32592 9.77732 6.22743 10.3999 6.55056 10.8447L6.97216 11.4249C7.16699 11.693 7.47043 11.8354 7.77826 11.8354C7.98116 11.8354 8.18595 11.7736 8.36263 11.6451C8.80753 11.3219 8.9061 10.6993 8.58281 10.2546Z" fill="#5A3F18"/>
<path d="M6.27881 13.5587L5.59672 13.7804C5.07388 13.9502 4.78771 14.5119 4.95752 15.0346C5.09416 15.4554 5.4844 15.7229 5.90412 15.7229C6.00596 15.7229 6.10968 15.7071 6.21186 15.6739L6.89395 15.4523C7.41679 15.2825 7.70296 14.7208 7.53315 14.198C7.36325 13.6751 6.80165 13.3888 6.27881 13.5587Z" fill="#5A3F18"/>
<path d="M17.9004 22.9186C17.6899 23.4266 17.9313 24.0088 18.4391 24.2192L19.676 24.7315C19.8006 24.7831 19.9296 24.8076 20.0565 24.8076C20.4471 24.8076 20.8177 24.5762 20.9766 24.1928C21.1871 23.6849 20.9459 23.1026 20.4379 22.8923L19.2011 22.38C18.6931 22.1697 18.1109 22.4106 17.9004 22.9186Z" fill="#5A3F18"/>
<path d="M23.9434 24.8077C24.0704 24.8077 24.1994 24.7832 24.324 24.7316L25.5609 24.2193C26.0688 24.0089 26.31 23.4266 26.0996 22.9187C25.8891 22.4108 25.3069 22.1697 24.7989 22.3799L23.562 22.8922C23.0541 23.1027 22.8129 23.685 23.0233 24.1929C23.1822 24.5762 23.5529 24.8077 23.9434 24.8077Z" fill="#5A3F18"/>
<path d="M28.3223 35.3884C27.871 35.0748 27.2505 35.186 26.9366 35.6373C25.811 37.2554 23.9655 38.2215 21.9999 38.2215C20.0342 38.2215 18.1887 37.2554 17.0632 35.6373C16.7492 35.186 16.1291 35.0747 15.6776 35.3884C15.2263 35.7024 15.1149 36.3228 15.4288 36.7742C16.9262 38.9272 19.3827 40.2125 21.9999 40.2125C24.6171 40.2125 27.0735 38.9272 28.5711 36.7742C28.8851 36.3228 28.7737 35.7025 28.3223 35.3884Z" fill="#5A3F18"/>
</svg>
