<svg width="38" height="38" viewBox="0 0 38 38" fill="none" xmlns="http://www.w3.org/2000/svg">
<g clip-path="url(#clip0_134_168)">
<mask id="mask0_134_168" style="mask-type:luminance" maskUnits="userSpaceOnUse" x="0" y="0" width="38" height="38">
<path d="M38 0H0V38H38V0Z" fill="white"/>
</mask>
<g mask="url(#mask0_134_168)">
<mask id="mask1_134_168" style="mask-type:luminance" maskUnits="userSpaceOnUse" x="0" y="0" width="38" height="38">
<path d="M38 0H0V38H38V0Z" fill="white"/>
</mask>
<g mask="url(#mask1_134_168)">
<path d="M22.9653 31.6661C22.9653 31.6661 11.8741 23.6845 11.8741 17.3511C11.8238 15.7442 12.412 14.1827 13.5097 13.008C14.6075 11.8333 16.1257 11.1411 17.7324 11.0827C18.8133 11.0261 19.8868 11.2904 20.8179 11.8423C21.749 12.3942 22.4961 13.2091 22.9653 14.1845C23.4365 13.2092 24.1849 12.3948 25.1169 11.843C26.0489 11.2912 27.123 11.0268 28.2046 11.0827C31.4449 11.0827 34.0321 13.9375 34.0408 17.386C34.0566 23.6845 22.9653 31.6661 22.9653 31.6661Z" fill="url(#paint0_linear_134_168)"/>
<path d="M22.9654 31.1743C23.6846 30.6365 25.9683 28.8789 28.2285 26.609C31.7781 23.0442 33.651 19.8552 33.6446 17.387C33.6362 14.1293 31.1957 11.4789 28.2042 11.4789C25.9484 11.4789 24.1698 12.5259 23.3246 14.3514L22.9654 15.1272L22.6062 14.3514C21.7609 12.5259 19.9858 11.4789 17.7361 11.4789C14.722 11.4789 12.2699 14.1134 12.2699 17.3517C12.2699 19.8325 14.1451 23.0296 17.6928 26.5973C19.9553 28.8725 22.2451 30.6355 22.9654 31.1743ZM22.9654 31.6664C22.9654 31.6664 11.874 23.685 11.874 17.3517C11.874 13.9034 14.4959 11.083 17.7361 11.083C20.0245 11.083 22.0138 12.1297 22.9654 14.185C23.917 12.1297 25.9158 11.083 28.2042 11.083C31.4444 11.083 34.0316 13.9378 34.0405 17.3861C34.0567 23.685 22.9654 31.6664 22.9654 31.6664Z" fill="white" fill-opacity="0.3"/>
<path d="M15.049 27.7081C15.049 27.7081 3.95781 19.7265 3.95781 13.3931C3.90756 11.7862 4.49562 10.2246 5.59342 9.04997C6.69121 7.87533 8.20943 7.18313 9.81615 7.12469C10.8971 7.06812 11.9705 7.3324 12.9016 7.88429C13.8327 8.4362 14.5798 9.25106 15.049 10.2265C15.5202 9.25122 16.2686 8.43671 17.2006 7.88495C18.1326 7.3332 19.2067 7.06873 20.2883 7.12469C23.5286 7.12469 26.1158 9.97945 26.1245 13.428C26.1403 19.7265 15.049 27.7081 15.049 27.7081Z" fill="url(#paint1_linear_134_168)"/>
<path d="M15.0488 27.2163C15.7681 26.6785 18.0518 24.9209 20.3119 22.651C23.8616 19.0862 25.7344 15.8972 25.7281 13.429C25.7197 10.1713 23.2792 7.52083 20.2877 7.52083C18.0318 7.52083 16.2533 8.56782 15.408 10.3934L15.0488 11.1692L14.6897 10.3934C13.8443 8.56782 12.0693 7.52083 9.81957 7.52083C6.80549 7.52083 4.35335 10.1554 4.35335 13.3937C4.35335 15.8745 6.22857 19.0716 9.77625 22.6393C12.0388 24.9145 14.3286 26.6775 15.0488 27.2163ZM15.0488 27.7084C15.0488 27.7084 3.95752 19.727 3.95752 13.3937C3.95752 9.94527 6.57942 7.125 9.81957 7.125C12.108 7.125 14.0972 8.17175 15.0488 10.227C16.0005 8.17175 17.9993 7.125 20.2877 7.125C23.5279 7.125 26.1151 9.97976 26.1239 13.4281C26.1402 19.727 15.0488 27.7084 15.0488 27.7084Z" fill="white" fill-opacity="0.3"/>
</g>
</g>
</g>
<defs>
<linearGradient id="paint0_linear_134_168" x1="22.9559" y1="11.0752" x2="22.9559" y2="31.6661" gradientUnits="userSpaceOnUse">
<stop stop-color="#D0A968"/>
<stop offset="1" stop-color="#D0A968"/>
</linearGradient>
<linearGradient id="paint1_linear_134_168" x1="15.0396" y1="7.11719" x2="15.0396" y2="27.7081" gradientUnits="userSpaceOnUse">
<stop offset="0.001" stop-color="#D0A968" stop-opacity="0.161"/>
<stop offset="1" stop-color="#D0A968" stop-opacity="0.161"/>
</linearGradient>
<clipPath id="clip0_134_168">
<rect width="38" height="38" fill="white"/>
</clipPath>
</defs>
</svg>
