<svg width="40" height="81" viewBox="0 0 40 81" fill="none" xmlns="http://www.w3.org/2000/svg">
<path d="M39 57.186C37.6425 54.469 34.7778 50.9033 34.7778 47.7451C34.7778 44.1583 35.5525 39.7355 33.8869 36.4021C33.1818 34.9961 32.6667 33.5711 32.6667 31.9688V24.316C32.6667 24.0756 32.5713 23.845 32.4015 23.6748C32.2317 23.5046 32.0014 23.4088 31.761 23.4082C31.0481 23.4079 30.3422 23.5481 29.6836 23.8208C29.0249 24.0935 28.4265 24.4933 27.9224 24.9973C27.4184 25.5014 27.0186 26.0998 26.7459 26.7585C26.4732 27.4171 26.333 28.123 26.3333 28.8359M11.5555 52.9638L19.2294 57.7602C19.7361 58.0769 20.171 58.4991 20.5045 58.9973L22.1111 61.4082" stroke="black" stroke-width="2" stroke-linecap="round" stroke-linejoin="round"/>
<path d="M5.27917 46.631C5.39529 48.9469 5.7394 50.3887 6.76751 51.419C8.31284 52.9643 10.7997 52.9643 15.7777 52.9643C20.7557 52.9643 23.2405 52.9643 24.788 51.419C26.3333 49.8715 26.3333 47.3846 26.3333 42.4087V29.7421C26.3333 24.7662 26.3333 22.2772 24.788 20.7319C23.2405 19.1865 20.7536 19.1865 15.7777 19.1865C10.8018 19.1865 8.31284 19.1865 6.76751 20.7319C5.7394 21.76 5.39529 23.204 5.27917 25.5199" stroke="black" stroke-width="2" stroke-linecap="round" stroke-linejoin="round"/>
<path d="M3.63889 30.7973H6.80556C7.50543 30.7973 8.17664 30.5193 8.67153 30.0244C9.16642 29.5295 9.44445 28.8583 9.44445 28.1584C9.44445 27.4585 9.16642 26.7873 8.67153 26.2924C8.17664 25.7976 7.50543 25.5195 6.80556 25.5195H3.63889C2.93901 25.5195 2.2678 25.7976 1.77291 26.2924C1.27802 26.7873 1 27.4585 1 28.1584C1 28.8583 1.27802 29.5295 1.77291 30.0244C2.2678 30.5193 2.93901 30.7973 3.63889 30.7973ZM3.63889 30.7973H8.91667C9.61654 30.7973 10.2878 31.0753 10.7826 31.5702C11.2775 32.0651 11.5556 32.7363 11.5556 33.4362C11.5556 34.1361 11.2775 34.8073 10.7826 35.3022C10.2878 35.7971 9.61654 36.0751 8.91667 36.0751H3.63889M3.63889 30.7973C2.93901 30.7973 2.2678 31.0753 1.77291 31.5702C1.27802 32.0651 1 32.7363 1 33.4362C1 34.1361 1.27802 34.8073 1.77291 35.3022C2.2678 35.7971 2.93901 36.0751 3.63889 36.0751M3.63889 36.0751H6.80556C7.50543 36.0751 8.17664 36.3531 8.67153 36.848C9.16642 37.3429 9.44445 38.0141 9.44445 38.714C9.44445 39.4139 9.16642 40.0851 8.67153 40.58C8.17664 41.0748 7.50543 41.3529 6.80556 41.3529H3.63889M3.63889 36.0751C2.93901 36.0751 2.2678 36.3531 1.77291 36.848C1.27802 37.3429 1 38.0141 1 38.714C1 39.4139 1.27802 40.0851 1.77291 40.58C2.2678 41.0748 2.93901 41.3529 3.63889 41.3529M3.63889 41.3529H5.75C6.44988 41.3529 7.12109 41.6309 7.61598 42.1258C8.11086 42.6207 8.38889 43.2919 8.38889 43.9918C8.38889 44.6916 8.11086 45.3628 7.61598 45.8577C7.12109 46.3526 6.44988 46.6306 5.75 46.6306H3.63889C2.93901 46.6306 2.2678 46.3526 1.77291 45.8577C1.27802 45.3628 1 44.6916 1 43.9918C1 43.2919 1.27802 42.6207 1.77291 42.1258C2.2678 41.6309 2.93901 41.3529 3.63889 41.3529ZM15.7778 46.6306H15.7968" stroke="black" stroke-width="2" stroke-linecap="round" stroke-linejoin="round"/>
</svg>
