<svg width="29" height="28" viewBox="0 0 29 28" fill="none" xmlns="http://www.w3.org/2000/svg">
<g clip-path="url(#clip0_197_561)">
<path d="M13.969 28C13.6351 27.9686 13.3004 27.9453 12.9679 27.9052C10.1241 27.5632 7.71788 26.3484 5.78267 24.2491C4.17851 22.5093 3.27726 20.437 3.05049 18.0745C2.89153 16.4244 3.09059 14.8261 3.72351 13.2898C3.8307 13.0294 3.77747 12.8435 3.57767 12.6627C3.0044 12.1407 2.33324 11.7377 1.60309 11.477C1.47403 11.4318 1.34351 11.3932 1.21663 11.3422C0.839653 11.1919 0.658819 10.9433 0.659548 10.5845C0.660277 10.2258 0.836009 9.96913 1.20861 9.81965C1.45361 9.72194 1.7059 9.64319 1.94726 9.53819C3.41483 8.89895 4.43105 7.82951 4.99591 6.32986C5.05716 6.16798 5.11695 6.00611 5.17747 5.84423C5.3007 5.51319 5.5333 5.32215 5.89059 5.30319C6.23111 5.28569 6.51257 5.4658 6.65986 5.80632C6.82247 6.18184 6.9683 6.56392 7.12726 6.94017C7.16518 7.02913 7.22642 7.10788 7.3759 7.25517C7.42526 7.16031 7.48029 7.06851 7.54069 6.98028C8.85483 5.27222 10.2713 3.64538 11.7823 2.10871C12.3656 1.52173 12.9438 0.931837 13.5374 0.358712C13.8961 0.0116282 14.2884 -0.0182676 14.6559 0.322253C15.4427 1.05142 16.1995 1.81048 16.9659 2.56007C17.1219 2.71246 17.2685 2.87434 17.4151 3.03621C17.5616 3.19809 17.6827 3.19225 17.8394 3.02309C18.6172 2.18309 19.403 1.35014 20.1968 0.524234C20.6394 0.0634005 21.0274 0.0342334 21.5093 0.460067C22.5784 1.42031 23.5729 2.46043 24.4843 3.57142C25.3044 4.54539 26.0298 5.59527 26.6507 6.70684C27.4608 8.18486 27.9304 9.7409 27.6774 11.4464C27.4302 13.1067 26.65 14.4819 25.3725 15.5662C25.1399 15.7638 25.0392 15.9702 25.0516 16.2684C25.1063 17.5758 25.0093 18.8679 24.6076 20.1235C24.111 21.7092 23.2591 23.1606 22.1167 24.3673C20.7109 25.8533 19.0477 26.9193 17.0855 27.5165C16.2693 27.7746 15.4217 27.9199 14.5662 27.9482C14.4401 27.9582 14.3147 27.9757 14.1907 28.0007L13.969 28ZM4.97257 14.7838L4.8909 14.7794C4.85485 14.868 4.8256 14.9592 4.80341 15.0522C4.7356 15.4641 4.65319 15.8754 4.61455 16.2917C4.43613 18.0706 4.80636 19.8614 5.67549 21.4236C6.55705 23.0278 7.83017 24.2513 9.41976 25.1424C11.1588 26.1194 13.0313 26.5533 15.0147 26.3243C17.6841 26.0166 19.8468 24.7501 21.5086 22.6493C22.7781 21.0452 23.4548 19.2113 23.4679 17.1514C23.4679 16.7868 23.4198 16.7526 23.0946 16.8678C20.164 17.9068 17.0067 16.7387 15.3289 14.4907C13.7073 12.3178 13.506 9.9509 14.7033 7.52496C15.1795 6.561 15.8291 5.68163 16.4147 4.77309C16.5401 4.57694 16.5875 4.43986 16.4023 4.25319C15.7285 3.57725 15.0693 2.88673 14.4 2.20569C14.1586 1.96069 14.101 1.95996 13.8677 2.20569C13.1947 2.90715 12.5005 3.59111 11.8625 4.32465C10.7541 5.60069 9.67497 6.90517 8.59653 8.20382C8.31435 8.54288 8.33185 8.5684 8.68768 8.84184C9.27101 9.29027 9.93601 9.5783 10.6273 9.81965C11.2106 10.0238 11.4031 10.6567 11.0079 11.0869C10.8693 11.2372 10.6499 11.3334 10.4493 11.4019C9.37382 11.7665 8.45143 12.3499 7.73684 13.2489C7.25341 13.8549 6.93476 14.5432 6.68247 15.2702C6.54903 15.6552 6.25882 15.8768 5.9183 15.8608C5.54424 15.8433 5.29413 15.642 5.16361 15.2884C5.10163 15.1185 5.03674 14.9544 4.97257 14.7838ZM26.1439 10.5065C26.1964 9.35882 25.7356 8.29423 25.1464 7.27705C24.0636 5.406 22.6826 3.77048 21.1309 2.27205C20.945 2.0934 20.8152 2.11528 20.6562 2.29028C20.032 2.97642 19.3838 3.64069 18.7808 4.34361C17.725 5.57444 16.7486 6.8658 16.0501 8.34163C15.3515 9.81746 15.3472 11.3108 16.0763 12.7626C17.2102 15.023 20.1232 16.3289 22.7117 15.33C24.8052 14.5206 26.1432 12.6889 26.1439 10.5065ZM8.39528 10.6422L8.37705 10.5306C8.3158 10.4927 8.25382 10.4577 8.1933 10.4168C7.34636 9.86314 6.62338 9.1399 6.06997 8.29278C5.96351 8.13017 5.87382 8.13017 5.76736 8.29278C5.21844 9.14309 4.49489 9.86689 3.64476 10.4161C3.47632 10.5248 3.46101 10.6195 3.64476 10.7369C4.49065 11.2762 5.20939 11.9927 5.75132 12.8369C5.86507 13.0149 5.96643 13.0302 6.09403 12.8369C6.64398 11.9991 7.3624 11.2849 8.20351 10.7399C8.26558 10.7027 8.32959 10.6688 8.39528 10.6385V10.6422Z" fill="#5A3F18"/>
</g>
<defs>
<clipPath id="clip0_197_561">
<rect width="28" height="28" fill="white" transform="translate(0.160034)"/>
</clipPath>
</defs>
</svg>
