<svg width="29" height="28" viewBox="0 0 29 28" fill="none" xmlns="http://www.w3.org/2000/svg">
<path fill-rule="evenodd" clip-rule="evenodd" d="M7.22012 11.6252C9.89616 11.647 12.1033 9.44351 12.1245 6.73028C12.1464 4.08049 9.97636 1.88496 7.34407 1.8383C6.69666 1.82594 6.0532 1.94187 5.45081 2.17941C4.84842 2.41695 4.29901 2.77139 3.83427 3.2223C3.36953 3.67321 2.99866 4.21167 2.74304 4.80661C2.48742 5.40155 2.35211 6.04122 2.34491 6.68871C2.30408 9.35528 4.54408 11.6033 7.22012 11.6252ZM3.16376 6.72298C3.19366 4.20152 5.25209 2.59079 7.25512 2.67027H7.25658C9.44626 2.59663 11.3487 4.50923 11.302 6.74632C11.2553 8.9834 9.48053 10.7961 7.25585 10.8063C5.03116 10.8165 3.13678 8.95496 3.16376 6.72298ZM21.4782 1.83817C24.1761 1.83234 26.3745 4.06359 26.3446 6.79067C26.3147 9.48859 24.0332 11.6899 21.3695 11.6221C18.6599 11.5492 16.3944 9.2888 16.5803 6.38088C16.7357 3.96078 18.7781 1.81557 21.4782 1.83817ZM17.3992 6.71411C17.3992 8.98255 19.1813 10.7974 21.4286 10.8091C23.6576 10.8244 25.5476 8.93515 25.5352 6.70317C25.5228 4.47119 23.7123 2.70443 21.4723 2.66068C19.2433 2.61766 17.327 4.51786 17.3992 6.71411ZM14.3119 26.2753C13.2714 26.2403 12.2615 26.061 11.2494 25.8583C10.2527 25.6577 9.42653 25.1291 8.66018 24.5093C7.81176 23.8251 6.98784 23.1132 6.16253 22.4002L6.16243 22.4001L6.1621 22.3998L6.1617 22.3995C5.86586 22.1439 5.56985 21.8881 5.27247 21.6335C5.06482 21.455 4.86721 21.2646 4.66933 21.074L4.6693 21.074C4.58508 20.9929 4.50081 20.9117 4.4157 20.8314C4.27935 20.7023 4.28956 20.6017 4.47112 20.5288C5.39335 20.1617 6.19161 19.5938 6.99136 19.0248C7.10343 18.945 7.21552 18.8653 7.32799 18.7861C8.00393 18.3099 8.70611 17.8695 9.4134 17.4408C10.0697 17.0448 10.7988 17.1002 11.5141 17.1804C12.3614 17.2767 13.1621 17.5589 13.9299 17.9242C14.0582 17.9907 14.2006 18.0254 14.3451 18.0254C14.4896 18.0254 14.6321 17.9907 14.7604 17.9242C15.8279 17.4357 16.9304 17.0864 18.1284 17.1396C18.5761 17.16 18.9983 17.249 19.368 17.4947C19.7917 17.7738 20.2129 18.057 20.6341 18.3402L20.6341 18.3402L20.6341 18.3402C21.2616 18.7622 21.8891 19.1841 22.5253 19.5925C22.9822 19.886 23.4667 20.1381 23.95 20.3896L23.9501 20.3896C24.0228 20.4275 24.0955 20.4653 24.1681 20.5033C24.3562 20.6017 24.4394 20.6753 24.2534 20.8518C22.5924 22.4188 20.924 23.9756 18.9968 25.2268C18.2742 25.6942 17.4656 25.8896 16.6336 26.0121C16.1023 26.0899 15.5651 26.1449 15.0274 26.2C14.7888 26.2244 14.5502 26.2489 14.3119 26.2753ZM6.03591 21.1923C6.07777 21.262 6.12664 21.3272 6.18174 21.387C6.44629 21.6072 6.71026 21.8281 6.97423 22.049L6.97439 22.0492L6.97456 22.0493L6.97473 22.0494L6.9749 22.0496L6.97506 22.0497L6.97523 22.0499L6.9754 22.05L6.97557 22.0501L6.97573 22.0503L6.9759 22.0504L6.97607 22.0505L6.97624 22.0507L6.9764 22.0508L6.97645 22.0509L6.97648 22.0509L6.9765 22.0509L6.97652 22.0509L6.97654 22.0509L6.97657 22.0509L6.97659 22.051L6.97661 22.051L6.97664 22.051L6.97666 22.051L6.97668 22.051L6.97671 22.051L6.97673 22.0511C7.77856 22.7221 8.58045 23.3933 9.39882 24.0434C9.88737 24.4313 10.4095 24.7915 11.0314 24.9577C13.1672 25.5294 15.3102 25.5637 17.4481 25.0008C17.8768 24.8839 18.2857 24.7041 18.6614 24.467C19.8974 23.6953 20.9861 22.7315 22.073 21.7694L22.1614 21.6911C22.269 21.5954 22.3735 21.4963 22.4779 21.3973L22.478 21.3972C22.5327 21.3453 22.5875 21.2933 22.6427 21.2419L22.6121 21.1588C22.5283 21.1528 22.4445 21.1454 22.3606 21.1381L22.3605 21.1381L22.3604 21.1381H22.3604H22.3603H22.3603H22.3603H22.3603H22.3602H22.3602H22.3602H22.3602H22.3602H22.3601H22.3601C22.1783 21.1221 21.9963 21.1061 21.8143 21.1041C21.6211 21.1022 21.428 21.0999 21.2351 21.0976C20.4089 21.0879 19.5852 21.0782 18.7606 21.0953C18.2483 21.1063 17.8001 21.3382 17.3583 21.5668L17.3582 21.5668L17.3582 21.5669L17.3582 21.5669L17.3581 21.5669L17.3581 21.5669L17.358 21.567L17.358 21.567L17.3579 21.567L17.3579 21.567L17.3579 21.567L17.3578 21.5671L17.3578 21.5671L17.3577 21.5671C17.2419 21.627 17.1266 21.6867 17.0106 21.7421C15.3466 22.534 13.6776 22.6412 11.9793 21.8653C11.8977 21.828 11.8163 21.7895 11.735 21.751L11.7347 21.7509C11.5112 21.6451 11.2876 21.5393 11.0562 21.457C10.9686 21.4257 10.8805 21.3917 10.792 21.3576L10.792 21.3576L10.792 21.3576L10.7919 21.3576L10.7919 21.3576L10.7919 21.3576L10.7918 21.3576L10.7918 21.3575L10.7918 21.3575L10.7918 21.3575L10.7917 21.3575L10.7917 21.3575L10.7917 21.3575L10.7916 21.3575C10.4687 21.233 10.1409 21.1067 9.81299 21.0975C8.93722 21.0721 8.06064 21.0928 7.18385 21.1136C6.87875 21.1208 6.57363 21.128 6.26851 21.1333C6.18899 21.1453 6.11084 21.1651 6.03518 21.1923H6.03591ZM21.9471 20.2378C21.9044 20.1828 21.8573 20.1314 21.8063 20.084L21.3522 19.778C20.6062 19.2751 19.8601 18.7722 19.1084 18.2764C18.7504 18.0401 18.3501 17.9534 17.9162 17.9548C16.8509 17.9592 15.8746 18.2946 14.9354 18.7482C14.5168 18.9509 14.188 18.9727 13.7687 18.7533C13.0328 18.3686 12.2365 18.1126 11.4142 17.9964C10.7048 17.8928 10.0288 17.9439 9.40611 18.3807C8.84502 18.7761 8.27328 19.156 7.70174 19.5358L7.70125 19.5362C7.44033 19.7096 7.17946 19.8829 6.91966 20.0577C6.86043 20.1104 6.80601 20.1682 6.75705 20.2306C6.81285 20.2347 6.86184 20.2391 6.9064 20.2432L6.90649 20.2432C6.98826 20.2507 7.0551 20.2568 7.12164 20.2568H9.54976C10.1245 20.2474 10.6935 20.3722 11.2115 20.6214C11.6935 20.8562 12.1908 21.0589 12.6881 21.2609C13.6838 21.6693 14.7953 21.6953 15.8089 21.3338C16.1975 21.2049 16.5756 21.0465 16.9399 20.8598C17.7813 20.4223 18.6578 20.1926 19.6144 20.2466C20.0721 20.272 20.5315 20.2657 20.991 20.2594C21.178 20.2569 21.365 20.2543 21.5518 20.2539C21.6332 20.2577 21.7133 20.2525 21.8237 20.2454C21.8608 20.243 21.9012 20.2404 21.9463 20.2378H21.9471ZM13.6186 14.3918C13.6186 14.744 13.3036 14.9314 13.0258 14.7476C12.8651 14.6414 12.7247 14.5032 12.585 14.3656C12.5435 14.3247 12.5019 14.2838 12.4599 14.2438C12.3032 14.0979 12.1478 13.9412 12.0049 13.7778C11.9406 13.7114 11.9039 13.623 11.9022 13.5306C11.9006 13.4381 11.9342 13.3485 11.9962 13.2798C12.126 13.1092 12.3258 13.0611 12.4767 13.1952C12.7886 13.4677 13.0829 13.7607 13.3776 14.0543L13.3776 14.0543L13.3777 14.0543C13.4418 14.1183 13.506 14.1822 13.5704 14.246C13.5974 14.274 13.6056 14.3223 13.6117 14.3581C13.614 14.3718 13.616 14.3836 13.6186 14.3918ZM16.7711 13.6201L16.7711 13.6201C16.7876 13.5822 16.8056 13.5407 16.8284 13.4961C16.802 13.4625 16.7774 13.4237 16.7529 13.3849L16.7529 13.3849L16.7529 13.3849L16.7529 13.3849L16.7529 13.3849L16.7529 13.3849L16.7529 13.3849L16.7529 13.3849L16.7529 13.3849L16.7529 13.3849L16.7529 13.3848C16.6983 13.2986 16.6438 13.2125 16.5688 13.1833C16.4456 13.1396 16.2393 13.1556 16.1467 13.2351C15.7998 13.5392 15.4688 13.8609 15.155 14.1991C15.0128 14.35 15.0478 14.5396 15.1798 14.6949C15.3285 14.8699 15.559 14.8735 15.7828 14.6708C16.0646 14.4196 16.3283 14.1483 16.5937 13.8753L16.5937 13.8753L16.5937 13.8753L16.5937 13.8752L16.5937 13.8752L16.5937 13.8752L16.5938 13.8752L16.5938 13.8752L16.5938 13.8752L16.5938 13.8751L16.6709 13.7958C16.7135 13.7523 16.7395 13.6927 16.7711 13.6201ZM19.3382 5.71212C19.4542 5.70835 19.567 5.75083 19.6517 5.83021C19.7364 5.90959 19.7861 6.01937 19.7899 6.1354C19.7937 6.25144 19.7512 6.36421 19.6718 6.44893C19.5924 6.53364 19.4827 6.58335 19.3666 6.58712C19.2506 6.5909 19.1378 6.54842 19.0531 6.46904C18.9684 6.38965 18.9187 6.27988 18.9149 6.16384C18.9111 6.04781 18.9536 5.93503 19.033 5.85032C19.1124 5.76561 19.2222 5.7159 19.3382 5.71212ZM23.6545 5.92968C23.732 5.84599 23.7744 5.73578 23.7731 5.62175C23.7739 5.56501 23.7631 5.5087 23.7413 5.45632C23.7195 5.40394 23.6871 5.35661 23.6462 5.31728C23.6053 5.27795 23.5568 5.24746 23.5036 5.22771C23.4504 5.20796 23.3937 5.19937 23.337 5.20248C23.2756 5.1969 23.2138 5.20435 23.1555 5.22434C23.0972 5.24433 23.0438 5.27642 22.9987 5.31849C22.9537 5.36056 22.9181 5.41167 22.8942 5.46847C22.8703 5.52527 22.8586 5.58648 22.86 5.64809C22.8614 5.7097 22.8758 5.77032 22.9023 5.82598C22.9287 5.88164 22.9666 5.93109 23.0135 5.97107C23.0604 6.01106 23.1152 6.0407 23.1744 6.05803C23.2335 6.07536 23.2956 6.08 23.3567 6.07165C23.4705 6.06419 23.5771 6.01338 23.6545 5.92968ZM23.4345 8.25071C23.4375 8.36723 23.3941 8.48016 23.3138 8.56467C23.2335 8.64918 23.123 8.69834 23.0065 8.70133C22.89 8.70433 22.777 8.66092 22.6925 8.58065C22.608 8.50038 22.5588 8.38983 22.5559 8.27331C22.5612 8.1596 22.6078 8.05175 22.687 7.96999C22.7662 7.88823 22.8726 7.83818 22.9861 7.82925C23.0999 7.83092 23.209 7.87507 23.292 7.95304C23.3749 8.03102 23.4258 8.13719 23.4345 8.25071ZM20.6736 8.30547C20.595 8.22216 20.4867 8.17304 20.3722 8.16867C20.2585 8.17167 20.15 8.21697 20.0679 8.29571C19.9857 8.37446 19.9359 8.48099 19.9282 8.5945C19.9239 8.65109 19.9312 8.70795 19.9495 8.76166C19.9678 8.81537 19.9968 8.8648 20.0348 8.90699C20.0727 8.94917 20.1188 8.98322 20.1703 9.00709C20.2218 9.03096 20.2776 9.04414 20.3343 9.04585C20.393 9.0487 20.4517 9.03969 20.5069 9.01934C20.562 8.999 20.6125 8.96775 20.6553 8.92746C20.6982 8.88717 20.7324 8.83866 20.7561 8.78483C20.7797 8.73101 20.7922 8.67297 20.793 8.61419C20.7951 8.49962 20.7523 8.38878 20.6736 8.30547ZM21.869 4.52966C21.8717 4.5867 21.8629 4.64369 21.843 4.69721C21.8231 4.75073 21.7926 4.79967 21.7533 4.84111C21.714 4.88254 21.6667 4.9156 21.6143 4.9383C21.562 4.96101 21.5055 4.9729 21.4484 4.97324C21.3913 4.97359 21.3347 4.96238 21.2821 4.94031C21.2294 4.91823 21.1818 4.88575 21.142 4.84479C21.1022 4.80384 21.0711 4.75526 21.0506 4.70198C21.03 4.64871 21.0205 4.59183 21.0225 4.53477C21.0263 4.42549 21.0722 4.32192 21.1507 4.24573C21.2291 4.16953 21.334 4.12662 21.4433 4.12596C21.5527 4.1253 21.658 4.16695 21.7374 4.24219C21.8167 4.31743 21.8639 4.42044 21.869 4.52966ZM8.96471 6.03779C9.01925 6.05737 9.07718 6.06576 9.13503 6.06248C9.24882 6.06234 9.35808 6.01786 9.43962 5.9385C9.52117 5.85913 9.56858 5.75112 9.5718 5.63737C9.57185 5.57835 9.55997 5.51993 9.53685 5.46563C9.51373 5.41133 9.47986 5.36226 9.43728 5.32139C9.39471 5.28052 9.3443 5.24868 9.2891 5.2278C9.2339 5.20691 9.17504 5.19742 9.11607 5.19987C9.05813 5.19913 9.00063 5.21007 8.947 5.23203C8.89337 5.25399 8.84471 5.28652 8.80393 5.32768C8.76314 5.36885 8.73106 5.4178 8.70959 5.47163C8.68813 5.52546 8.67773 5.58306 8.679 5.64099C8.68027 5.69893 8.6932 5.75601 8.71701 5.80885C8.74082 5.86168 8.77501 5.90918 8.81757 5.94851C8.86013 5.98784 8.91017 6.01821 8.96471 6.03779ZM5.12439 5.71875C5.18532 5.71123 5.24715 5.71662 5.30586 5.73457C5.36457 5.75251 5.41884 5.78261 5.46516 5.8229C5.51147 5.8632 5.54879 5.91279 5.57468 5.96846C5.60057 6.02412 5.61445 6.08461 5.61543 6.146C5.61641 6.20738 5.60446 6.26828 5.58035 6.32474C5.55625 6.3812 5.52053 6.43196 5.47553 6.47371C5.43052 6.51546 5.37723 6.54727 5.31912 6.56707C5.26101 6.58688 5.19938 6.59423 5.13824 6.58865C5.0816 6.59138 5.02501 6.5824 4.972 6.56228C4.91898 6.54216 4.87069 6.51133 4.83012 6.47171C4.78955 6.4321 4.75757 6.38455 4.73619 6.33203C4.71481 6.27951 4.70448 6.22315 4.70585 6.16646C4.7049 6.05241 4.74781 5.94234 4.8257 5.85902C4.9036 5.7757 5.01053 5.72548 5.12439 5.71875ZM6.55373 8.78205C6.57456 8.72928 6.58443 8.67282 6.58273 8.61611C6.58091 8.50155 6.53587 8.39191 6.45663 8.30916C6.3774 8.2264 6.26981 8.17665 6.15544 8.16986C6.09687 8.16983 6.03888 8.18156 5.98493 8.20437C5.93097 8.22717 5.88215 8.26058 5.84135 8.3026C5.80054 8.34463 5.7686 8.39442 5.7474 8.44902C5.7262 8.50363 5.71619 8.56193 5.71794 8.62048C5.72098 8.73448 5.76841 8.84279 5.85013 8.92233C5.93185 9.00187 6.0414 9.04635 6.15544 9.04631C6.21216 9.04763 6.26855 9.03738 6.32118 9.01618C6.37381 8.99499 6.42157 8.9633 6.46155 8.92304C6.50153 8.88279 6.53289 8.83482 6.55373 8.78205ZM8.79659 8.70633C8.57784 8.71362 8.36274 8.50289 8.35909 8.2732C8.36085 8.19023 8.38689 8.10959 8.434 8.04127C8.4811 7.97295 8.5472 7.91993 8.62413 7.88879C8.70105 7.85765 8.78543 7.84975 8.8668 7.86606C8.94817 7.88238 9.02296 7.92219 9.08194 7.98057C9.14092 8.03896 9.18148 8.11336 9.19861 8.19456C9.21574 8.27576 9.20869 8.36021 9.17832 8.43744C9.14795 8.51468 9.09561 8.58131 9.02776 8.6291C8.95991 8.67689 8.87954 8.70374 8.79659 8.70633ZM7.55743 4.82894C7.63343 4.74358 7.67372 4.63227 7.66996 4.51803C7.66984 4.46124 7.65797 4.40508 7.63511 4.35309C7.61225 4.3011 7.5789 4.2544 7.53713 4.21592C7.49536 4.17744 7.44608 4.14801 7.3924 4.12948C7.33871 4.11095 7.28178 4.10372 7.22517 4.10824C7.16847 4.11022 7.11271 4.12335 7.06109 4.14689C7.00948 4.17043 6.963 4.20391 6.92433 4.24542C6.88566 4.28694 6.85555 4.33567 6.83573 4.38882C6.81591 4.44198 6.80676 4.49853 6.80881 4.55522C6.82056 4.66835 6.87292 4.77338 6.95617 4.85087C7.03942 4.92836 7.14795 4.97306 7.26162 4.97668C7.37553 4.9672 7.48143 4.91431 7.55743 4.82894Z" fill="#5A3F18"/>
<path d="M12.1245 6.73028L11.8745 6.72821L11.8745 6.72833L12.1245 6.73028ZM7.34407 1.8383L7.3393 2.08825L7.33964 2.08826L7.34407 1.8383ZM5.45081 2.17941L5.3591 1.94684L5.3591 1.94684L5.45081 2.17941ZM3.83427 3.2223L3.66018 3.04288L3.66018 3.04288L3.83427 3.2223ZM2.74304 4.80661L2.51334 4.70792L2.51334 4.70792L2.74304 4.80661ZM2.34491 6.68871L2.59488 6.69254L2.59489 6.69149L2.34491 6.68871ZM7.25512 2.67027L7.2452 2.92027H7.25512V2.67027ZM3.16376 6.72298L3.41374 6.726L3.41375 6.72595L3.16376 6.72298ZM7.25658 2.67027L7.25658 2.92041L7.26498 2.92013L7.25658 2.67027ZM7.25585 10.8063L7.2547 10.5563L7.2547 10.5563L7.25585 10.8063ZM26.3446 6.79067L26.5946 6.79344L26.5946 6.79341L26.3446 6.79067ZM21.4782 1.83817L21.4761 2.08818L21.4787 2.08817L21.4782 1.83817ZM21.3695 11.6221L21.3628 11.872L21.3631 11.872L21.3695 11.6221ZM16.5803 6.38088L16.3309 6.36487L16.3308 6.36493L16.5803 6.38088ZM21.4286 10.8091L21.4303 10.5591L21.4299 10.5591L21.4286 10.8091ZM17.3992 6.71411H17.6493L17.6491 6.7059L17.3992 6.71411ZM25.5352 6.70317L25.2852 6.70456L25.5352 6.70317ZM21.4723 2.66068L21.4772 2.41072L21.4771 2.41072L21.4723 2.66068ZM11.2494 25.8583L11.2001 26.1033L11.2004 26.1034L11.2494 25.8583ZM14.3119 26.2753L14.3035 26.5252L14.3216 26.5258L14.3395 26.5238L14.3119 26.2753ZM8.66018 24.5093L8.81739 24.3149L8.81712 24.3147L8.66018 24.5093ZM6.16253 22.4002L6.32597 22.211L6.32523 22.2104L6.16253 22.4002ZM6.16243 22.4001L5.99946 22.5897L5.99973 22.5899L6.16243 22.4001ZM6.1621 22.3998L5.99799 22.5884L5.99913 22.5894L6.1621 22.3998ZM6.1617 22.3995L6.32581 22.2109L6.32514 22.2103L6.1617 22.3995ZM5.27247 21.6335L5.10951 21.823L5.10986 21.8233L5.27247 21.6335ZM4.66933 21.074L4.84299 20.8937L4.83338 20.8854L4.66933 21.074ZM4.6693 21.074L4.49564 21.2543L4.50526 21.2626L4.6693 21.074ZM4.4157 20.8314L4.24385 21.0129L4.24411 21.0132L4.4157 20.8314ZM4.47112 20.5288L4.37866 20.2965L4.37795 20.2968L4.47112 20.5288ZM6.99136 19.0248L7.13629 19.2285L7.13629 19.2285L6.99136 19.0248ZM7.32799 18.7861L7.47195 18.9905L7.47196 18.9905L7.32799 18.7861ZM9.4134 17.4408L9.28426 17.2267L9.28381 17.227L9.4134 17.4408ZM11.5141 17.1804L11.5424 16.932L11.542 16.932L11.5141 17.1804ZM13.9299 17.9242L14.0449 17.7021L14.0373 17.6984L13.9299 17.9242ZM14.7604 17.9242L14.6562 17.6966L14.6454 17.7022L14.7604 17.9242ZM18.1284 17.1396L18.1398 16.8899L18.1395 16.8899L18.1284 17.1396ZM19.368 17.4947L19.2296 17.7029L19.2305 17.7035L19.368 17.4947ZM20.6341 18.3402L20.8108 18.1634L20.7937 18.1463L20.7736 18.1327L20.6341 18.3402ZM20.6341 18.3402L20.4573 18.517L20.4745 18.5341L20.4946 18.5477L20.6341 18.3402ZM22.5253 19.5925L22.6604 19.3822L22.6603 19.3822L22.5253 19.5925ZM23.95 20.3896L23.8346 20.6114L23.8382 20.6132L23.95 20.3896ZM23.9501 20.3896L24.0655 20.1678L24.0619 20.166L23.9501 20.3896ZM24.1681 20.5033L24.284 20.2817L24.2839 20.2817L24.1681 20.5033ZM24.2534 20.8518L24.425 21.0337L24.4255 21.0331L24.2534 20.8518ZM18.9968 25.2268L19.1326 25.4367L19.133 25.4365L18.9968 25.2268ZM16.6336 26.0121L16.6698 26.2595L16.67 26.2594L16.6336 26.0121ZM15.0274 26.2L15.0019 25.9513L15.0019 25.9513L15.0274 26.2ZM6.18174 21.387L5.99794 21.5565L6.00913 21.5686L6.02182 21.5792L6.18174 21.387ZM6.03591 21.1923L6.25021 21.0636L6.17737 20.9423H6.03591V21.1923ZM6.97423 22.049L6.81376 22.2408L6.81565 22.2423L6.97423 22.049ZM6.9764 22.0508L6.81781 22.2441L6.82023 22.246L6.9764 22.0508ZM6.97645 22.0509L6.8202 22.2462L6.82645 22.2509L6.97645 22.0509ZM6.97673 22.0511L7.13741 21.8591L7.12673 21.8511L6.97673 22.0511ZM9.39882 24.0434L9.24332 24.2391L9.24336 24.2392L9.39882 24.0434ZM11.0314 24.9577L11.0961 24.7162L11.096 24.7162L11.0314 24.9577ZM17.4481 25.0008L17.5118 25.2425L17.5138 25.242L17.4481 25.0008ZM18.6614 24.467L18.529 24.2549L18.528 24.2556L18.6614 24.467ZM22.073 21.7694L21.9073 21.5822L21.9073 21.5822L22.073 21.7694ZM22.1614 21.6911L22.3271 21.8783L22.3275 21.8779L22.1614 21.6911ZM22.4779 21.3973L22.6501 21.5787L22.6547 21.574L22.4779 21.3973ZM22.478 21.3972L22.3058 21.2158L22.3012 21.2205L22.478 21.3972ZM22.6427 21.2419L22.8131 21.4248L22.9347 21.3115L22.8773 21.1555L22.6427 21.2419ZM22.6121 21.1588L22.8466 21.0723L22.7908 20.9209L22.6299 20.9094L22.6121 21.1588ZM22.3606 21.1381L22.3314 21.3865L22.3387 21.3871L22.3606 21.1381ZM22.3605 21.1381L22.3897 20.8898L22.3824 20.8889L22.3752 20.8885L22.3605 21.1381ZM22.3604 21.1381L22.3751 20.8885L22.3677 20.8881H22.3604V21.1381ZM22.3601 21.1381L22.3382 21.3871L22.3491 21.3881H22.3601V21.1381ZM21.8143 21.1041L21.8171 20.8541L21.8168 20.8541L21.8143 21.1041ZM21.2351 21.0976L21.238 20.8476L21.238 20.8476L21.2351 21.0976ZM18.7606 21.0953L18.7554 20.8454L18.7552 20.8454L18.7606 21.0953ZM17.3583 21.5668L17.2434 21.3448L17.2406 21.3462L17.3583 21.5668ZM17.3577 21.5671L17.4726 21.7892L17.4754 21.7877L17.3577 21.5671ZM17.0106 21.7421L17.118 21.9679L17.1184 21.9677L17.0106 21.7421ZM11.9793 21.8653L11.8754 22.0927L11.8755 22.0927L11.9793 21.8653ZM11.735 21.751L11.6267 21.9764L11.6281 21.977L11.735 21.751ZM11.7347 21.7509L11.843 21.5256L11.8417 21.5249L11.7347 21.7509ZM11.0562 21.457L10.972 21.6924L10.9724 21.6926L11.0562 21.457ZM10.792 21.3576L10.6992 21.5898L10.7021 21.5909L10.792 21.3576ZM10.7916 21.3575L10.8845 21.1253L10.8815 21.1242L10.7916 21.3575ZM9.81299 21.0975L9.80574 21.3474L9.80602 21.3474L9.81299 21.0975ZM7.18385 21.1136L7.18976 21.3635L7.18976 21.3635L7.18385 21.1136ZM6.26851 21.1333L6.26419 20.8833L6.24756 20.8836L6.23111 20.8861L6.26851 21.1333ZM6.03518 21.1923L5.95047 20.9571L6.03518 21.4423V21.1923ZM21.8063 20.084L21.9766 19.9009L21.9622 19.8876L21.946 19.8767L21.8063 20.084ZM21.9471 20.2378V20.4878H22.4575L22.1445 20.0846L21.9471 20.2378ZM21.3522 19.778L21.2124 19.9853L21.2125 19.9853L21.3522 19.778ZM19.1084 18.2764L18.9707 18.485L18.9707 18.4851L19.1084 18.2764ZM17.9162 17.9548L17.9154 17.7048L17.9152 17.7048L17.9162 17.9548ZM14.9354 18.7482L14.8267 18.523L14.8264 18.5232L14.9354 18.7482ZM13.7687 18.7533L13.8847 18.5318L13.8845 18.5317L13.7687 18.7533ZM11.4142 17.9964L11.3781 18.2438L11.3792 18.2439L11.4142 17.9964ZM9.40611 18.3807L9.26256 18.176L9.2621 18.1763L9.40611 18.3807ZM7.70174 19.5358L7.8393 19.7446L7.84011 19.7441L7.70174 19.5358ZM7.70125 19.5362L7.56369 19.3274L7.56287 19.328L7.70125 19.5362ZM6.91966 20.0577L6.7801 19.8503L6.76613 19.8597L6.75355 19.8709L6.91966 20.0577ZM6.75705 20.2306L6.56046 20.0761L6.27039 20.4454L6.73868 20.4799L6.75705 20.2306ZM6.9064 20.2432L6.88362 20.4923L6.89105 20.4927L6.9064 20.2432ZM6.90649 20.2432L6.92925 19.9941L6.92185 19.9937L6.90649 20.2432ZM9.54976 20.2568V20.5068L9.55385 20.5068L9.54976 20.2568ZM11.2115 20.6214L11.321 20.3966L11.3199 20.3961L11.2115 20.6214ZM12.6881 21.2609L12.783 21.0296L12.7822 21.0292L12.6881 21.2609ZM15.8089 21.3338L15.7302 21.0964L15.7249 21.0983L15.8089 21.3338ZM16.9399 20.8598L17.0539 21.0823L17.0552 21.0816L16.9399 20.8598ZM19.6144 20.2466L19.6004 20.4962L19.6006 20.4962L19.6144 20.2466ZM20.991 20.2594L20.9876 20.0094L20.9876 20.0094L20.991 20.2594ZM21.5518 20.2539L21.5636 20.0039L21.5513 20.0039L21.5518 20.2539ZM21.8237 20.2454L21.8398 20.4949L21.8398 20.4949L21.8237 20.2454ZM21.9463 20.2378V19.9878H21.9392L21.9321 19.9882L21.9463 20.2378ZM13.0258 14.7476L13.1637 14.5391L13.1636 14.5391L13.0258 14.7476ZM13.6186 14.3918H13.8686V14.3531L13.8569 14.3162L13.6186 14.3918ZM12.585 14.3656L12.7605 14.1875L12.7605 14.1875L12.585 14.3656ZM12.4599 14.2438L12.6323 14.0627L12.6302 14.0607L12.4599 14.2438ZM12.0049 13.7778L12.1933 13.613L12.1845 13.6039L12.0049 13.7778ZM11.9022 13.5306L11.6523 13.5349L11.6523 13.535L11.9022 13.5306ZM11.9962 13.2798L12.1817 13.4474L12.1888 13.4396L12.1952 13.4312L11.9962 13.2798ZM12.4767 13.1952L12.3106 13.3821L12.3122 13.3835L12.4767 13.1952ZM13.3776 14.0543L13.5544 13.8775L13.554 13.8771L13.3776 14.0543ZM13.3777 14.0543L13.2009 14.2311L13.2012 14.2315L13.3777 14.0543ZM13.5704 14.246L13.7506 14.0726L13.7463 14.0683L13.5704 14.246ZM13.6117 14.3581L13.3652 14.3999L13.3652 14.3999L13.6117 14.3581ZM16.7711 13.6201L16.5419 13.5203L16.5374 13.5305L16.5339 13.541L16.7711 13.6201ZM16.7711 13.6201L17.0003 13.7199L17.0047 13.7097L17.0082 13.6992L16.7711 13.6201ZM16.8284 13.4961L17.051 13.6099L17.1238 13.4675L17.025 13.3417L16.8284 13.4961ZM16.7529 13.3849L16.9642 13.2512L16.9609 13.2463L16.7529 13.3849ZM16.7529 13.3849L16.5408 13.5174L16.5449 13.5235L16.7529 13.3849ZM16.7529 13.3848L16.9649 13.2523L16.9641 13.2511L16.7529 13.3848ZM16.5688 13.1833L16.6596 12.9503L16.6525 12.9477L16.5688 13.1833ZM16.1467 13.2351L15.9838 13.0454L15.9819 13.0471L16.1467 13.2351ZM15.155 14.1991L15.337 14.3705L15.3382 14.3691L15.155 14.1991ZM15.1798 14.6949L14.9893 14.8568L14.9893 14.8568L15.1798 14.6949ZM15.7828 14.6708L15.6164 14.4842L15.615 14.4855L15.7828 14.6708ZM16.5937 13.8753L16.4169 13.6985L16.4144 13.701L16.5937 13.8753ZM16.5938 13.8752L16.7706 14.052L16.7753 14.0471L16.5938 13.8752ZM16.5938 13.8751L16.4146 13.7008L16.4123 13.7032L16.5938 13.8751ZM16.6709 13.7958L16.4922 13.621L16.4917 13.6215L16.6709 13.7958ZM19.6517 5.83021L19.8227 5.64778L19.8226 5.64778L19.6517 5.83021ZM19.3382 5.71212L19.3463 5.96199L19.3463 5.96199L19.3382 5.71212ZM19.6718 6.44893L19.4894 6.27799L19.4894 6.27799L19.6718 6.44893ZM19.3666 6.58712L19.3585 6.33726L19.3585 6.33726L19.3666 6.58712ZM19.0531 6.46904L19.224 6.28661L19.224 6.28661L19.0531 6.46904ZM19.033 5.85032L19.2154 6.02126L19.2154 6.02126L19.033 5.85032ZM23.7731 5.62175L23.523 5.61785L23.5231 5.62474L23.7731 5.62175ZM23.6545 5.92968L23.4711 5.75988L23.4711 5.75988L23.6545 5.92968ZM23.7413 5.45632L23.9721 5.36019L23.9721 5.36019L23.7413 5.45632ZM23.6462 5.31728L23.8195 5.13707L23.8195 5.13706L23.6462 5.31728ZM23.5036 5.22771L23.5906 4.99334L23.5906 4.99334L23.5036 5.22771ZM23.337 5.20248L23.3144 5.45145L23.3325 5.4531L23.3507 5.4521L23.337 5.20248ZM22.9987 5.31849L22.8281 5.1358L22.8281 5.1358L22.9987 5.31849ZM22.86 5.64809L23.1099 5.64243L23.1099 5.64242L22.86 5.64809ZM22.9023 5.82598L23.1281 5.71867L23.1281 5.71867L22.9023 5.82598ZM23.3567 6.07165L23.3404 5.82218L23.3316 5.82276L23.3228 5.82395L23.3567 6.07165ZM23.4345 8.25071L23.6847 8.24427L23.6838 8.23157L23.4345 8.25071ZM23.0065 8.70133L23 8.45142L23 8.45142L23.0065 8.70133ZM22.5559 8.27331L22.3061 8.26161L22.3057 8.27067L22.3059 8.27975L22.5559 8.27331ZM22.687 7.96999L22.5075 7.79603L22.5075 7.79604L22.687 7.96999ZM22.9861 7.82925L22.9897 7.57928L22.9781 7.57911L22.9664 7.58002L22.9861 7.82925ZM20.3722 8.16867L20.3818 7.91885L20.3737 7.91854L20.3656 7.91876L20.3722 8.16867ZM20.6736 8.30547L20.4919 8.47711L20.4919 8.47712L20.6736 8.30547ZM20.0679 8.29571L20.2409 8.47615L20.2409 8.47615L20.0679 8.29571ZM19.9282 8.5945L20.1775 8.61328L20.1776 8.61156L19.9282 8.5945ZM20.0348 8.90699L20.2206 8.73976L20.2206 8.73976L20.0348 8.90699ZM20.1703 9.00709L20.0652 9.2339L20.0652 9.2339L20.1703 9.00709ZM20.3343 9.04585L20.3464 8.79611L20.3419 8.79597L20.3343 9.04585ZM20.6553 8.92746L20.484 8.74541L20.484 8.74541L20.6553 8.92746ZM20.7561 8.78483L20.9849 8.88539L20.9849 8.88539L20.7561 8.78483ZM20.793 8.61419L20.543 8.60942L20.543 8.61115L20.793 8.61419ZM21.843 4.69721L22.0773 4.78432L22.0773 4.78431L21.843 4.69721ZM21.869 4.52966L21.6193 4.54143L21.6193 4.54143L21.869 4.52966ZM21.7533 4.84111L21.5719 4.66909L21.5719 4.66909L21.7533 4.84111ZM21.4484 4.97324L21.4499 5.22324L21.4499 5.22324L21.4484 4.97324ZM21.2821 4.94031L21.1854 5.17087L21.1854 5.17087L21.2821 4.94031ZM21.142 4.84479L21.3213 4.6706L21.3213 4.67059L21.142 4.84479ZM21.0506 4.70198L20.8173 4.7919L20.8173 4.79191L21.0506 4.70198ZM21.0225 4.53477L20.7726 4.52601L20.7726 4.52601L21.0225 4.53477ZM21.1507 4.24573L21.3249 4.42505L21.3249 4.42504L21.1507 4.24573ZM21.4433 4.12596L21.4418 3.87597L21.4418 3.87597L21.4433 4.12596ZM21.7374 4.24219L21.9094 4.06078L21.9094 4.06078L21.7374 4.24219ZM9.13503 6.06248L9.13472 5.8121L9.12086 5.81288L9.13503 6.06248ZM9.5718 5.63737L9.8218 5.64446L9.8218 5.63759L9.5718 5.63737ZM9.53685 5.46563L9.30682 5.56355L9.30682 5.56355L9.53685 5.46563ZM9.2891 5.2278L9.37756 4.99397L9.37756 4.99397L9.2891 5.2278ZM9.11607 5.19987L9.11288 5.45023L9.12649 5.44966L9.11607 5.19987ZM8.947 5.23203L8.85227 5.00067L8.85227 5.00067L8.947 5.23203ZM8.679 5.64099L8.92894 5.6355L8.92894 5.6355L8.679 5.64099ZM8.71701 5.80885L8.48908 5.91155L8.48908 5.91155L8.71701 5.80885ZM5.30586 5.73457L5.23279 5.97365L5.23279 5.97365L5.30586 5.73457ZM5.12439 5.71875L5.13914 5.96832L5.1471 5.96785L5.15502 5.96687L5.12439 5.71875ZM5.46516 5.8229L5.62926 5.6343L5.62925 5.6343L5.46516 5.8229ZM5.57468 5.96846L5.80136 5.86303L5.80136 5.86302L5.57468 5.96846ZM5.61543 6.146L5.8654 6.14202L5.8654 6.14201L5.61543 6.146ZM5.58035 6.32474L5.35043 6.22658L5.35043 6.22658L5.58035 6.32474ZM5.47553 6.47371L5.3055 6.29042L5.3055 6.29042L5.47553 6.47371ZM5.31912 6.56707L5.39976 6.80371L5.39977 6.80371L5.31912 6.56707ZM5.13824 6.58865L5.16095 6.33969L5.14362 6.33811L5.12624 6.33894L5.13824 6.58865ZM4.972 6.56228L5.0607 6.32854L5.0607 6.32854L4.972 6.56228ZM4.73619 6.33203L4.96774 6.23777L4.96774 6.23777L4.73619 6.33203ZM4.70585 6.16646L4.95591 6.1725L4.95584 6.16439L4.70585 6.16646ZM6.58273 8.61611L6.33274 8.62008L6.33285 8.62359L6.58273 8.61611ZM6.55373 8.78205L6.78626 8.87386L6.78626 8.87386L6.55373 8.78205ZM6.15544 8.16986L6.17026 7.9203L6.16291 7.91986L6.15556 7.91986L6.15544 8.16986ZM5.98493 8.20437L6.08225 8.43465L6.08225 8.43465L5.98493 8.20437ZM5.84135 8.3026L6.02072 8.47675L6.02072 8.47675L5.84135 8.3026ZM5.7474 8.44902L5.51434 8.35855L5.51434 8.35855L5.7474 8.44902ZM5.71794 8.62048L5.96786 8.61382L5.96783 8.61298L5.71794 8.62048ZM6.15544 9.04631L6.16123 8.79631L6.15535 8.79631L6.15544 9.04631ZM6.46155 8.92304L6.63892 9.09922L6.63893 9.09922L6.46155 8.92304ZM8.35909 8.2732L8.10898 8.26792L8.10913 8.27717L8.35909 8.2732ZM8.79659 8.70633L8.78881 8.45645L8.78826 8.45647L8.79659 8.70633ZM8.434 8.04127L8.63982 8.18318L8.63982 8.18318L8.434 8.04127ZM8.62413 7.88879L8.53032 7.65706L8.53032 7.65706L8.62413 7.88879ZM8.8668 7.86606L8.91594 7.62094L8.91594 7.62094L8.8668 7.86606ZM9.08194 7.98057L8.90605 8.15824L8.90605 8.15824L9.08194 7.98057ZM9.17832 8.43744L8.94566 8.34596L8.94566 8.34597L9.17832 8.43744ZM9.02776 8.6291L8.88379 8.42472L8.88379 8.42472L9.02776 8.6291ZM7.66996 4.51803L7.41984 4.51857L7.42009 4.52626L7.66996 4.51803ZM7.55743 4.82894L7.74415 4.99518L7.74415 4.99518L7.55743 4.82894ZM7.63511 4.35309L7.86397 4.25247L7.86397 4.25247L7.63511 4.35309ZM7.3924 4.12948L7.47397 3.89316L7.47397 3.89316L7.3924 4.12948ZM7.22517 4.10824L7.23388 4.35834L7.24508 4.35745L7.22517 4.10824ZM7.06109 4.14689L7.16482 4.37436L7.16482 4.37436L7.06109 4.14689ZM6.92433 4.24542L6.7414 4.07502L6.7414 4.07503L6.92433 4.24542ZM6.83573 4.38882L6.60149 4.30147L6.60149 4.30147L6.83573 4.38882ZM6.80881 4.55522L6.55897 4.56424L6.55927 4.57267L6.56014 4.58106L6.80881 4.55522ZM6.95617 4.85087L7.1265 4.66787L7.1265 4.66787L6.95617 4.85087ZM7.26162 4.97668L7.25366 5.22655L7.26803 5.22701L7.28236 5.22582L7.26162 4.97668ZM11.8745 6.72833C11.8544 9.30679 9.75678 11.3959 7.22216 11.3752L7.21807 11.8752C10.0355 11.8982 12.3523 9.58022 12.3745 6.73223L11.8745 6.72833ZM7.33964 2.08826C9.83632 2.13252 11.8952 4.21708 11.8745 6.72821L12.3745 6.73234C12.3975 3.9439 10.1164 1.63741 7.3485 1.58834L7.33964 2.08826ZM5.54252 2.41198C6.11421 2.18655 6.72488 2.07652 7.3393 2.08825L7.34884 1.58834C6.66843 1.57535 5.99219 1.69719 5.3591 1.94684L5.54252 2.41198ZM4.00836 3.40173C4.44941 2.9738 4.97083 2.63741 5.54252 2.41198L5.3591 1.94684C4.72601 2.19648 4.14861 2.56899 3.66018 3.04288L4.00836 3.40173ZM2.97274 4.9053C3.21533 4.34067 3.5673 3.82966 4.00836 3.40173L3.66018 3.04288C3.17176 3.51676 2.78199 4.08266 2.51334 4.70792L2.97274 4.9053ZM2.59489 6.69149C2.60172 6.07699 2.73014 5.46993 2.97274 4.9053L2.51334 4.70792C2.2447 5.33318 2.10249 6.00544 2.09493 6.68594L2.59489 6.69149ZM7.22216 11.3752C4.68161 11.3544 2.55622 9.2171 2.59488 6.69254L2.09494 6.68489C2.05193 9.49345 4.40654 11.8522 7.21807 11.8752L7.22216 11.3752ZM7.26503 2.42047C5.12873 2.3357 2.94543 4.05048 2.91378 6.72002L3.41375 6.72595C3.44189 4.35257 5.37546 2.84589 7.2452 2.92008L7.26503 2.42047ZM7.25658 2.42027H7.25512V2.92027H7.25658V2.42027ZM11.5519 6.75153C11.6015 4.37583 9.58593 2.34179 7.24817 2.42041L7.26498 2.92013C9.3066 2.85147 11.0958 4.64264 11.052 6.7411L11.5519 6.75153ZM7.25699 11.0563C9.62308 11.0455 11.5026 9.11829 11.5519 6.75153L11.052 6.7411C11.0081 8.84851 9.33798 10.5468 7.2547 10.5563L7.25699 11.0563ZM2.91378 6.71996C2.88507 9.09506 4.89606 11.0671 7.25699 11.0563L7.2547 10.5563C5.16626 10.5659 3.3885 8.81487 3.41374 6.726L2.91378 6.71996ZM26.5946 6.79341C26.626 3.92886 24.3168 1.58204 21.4776 1.58817L21.4787 2.08817C24.0354 2.08265 26.123 4.19832 26.0946 6.78793L26.5946 6.79341ZM21.3631 11.872C24.1675 11.9434 26.5632 9.62959 26.5946 6.79344L26.0946 6.7879C26.0663 9.34759 23.8989 11.4364 21.3759 11.3722L21.3631 11.872ZM16.3308 6.36493C16.1354 9.42124 18.5187 11.7955 21.3628 11.872L21.3762 11.3722C18.8012 11.3029 16.6534 9.15636 16.8298 6.39683L16.3308 6.36493ZM21.4802 1.58818C18.6394 1.5644 16.4941 3.82056 16.3309 6.36487L16.8298 6.39689C16.9772 4.10099 18.9167 2.06674 21.4761 2.08817L21.4802 1.58818ZM21.4299 10.5591C19.3229 10.5482 17.6492 8.84772 17.6492 6.71411H17.1492C17.1492 9.11738 19.0397 11.0467 21.4273 11.0591L21.4299 10.5591ZM25.2852 6.70456C25.2969 8.79751 23.5198 10.5735 21.4303 10.5591L21.4268 11.0591C23.7954 11.0754 25.7984 9.07279 25.7852 6.70178L25.2852 6.70456ZM21.4674 2.91063C23.5777 2.95184 25.2736 4.61398 25.2852 6.70456L25.7852 6.70178C25.772 4.3284 23.847 2.45701 21.4772 2.41072L21.4674 2.91063ZM17.6491 6.7059C17.5817 4.65747 19.3768 2.87028 21.4675 2.91063L21.4771 2.41072C19.1097 2.36503 17.0723 4.37825 17.1493 6.72232L17.6491 6.7059ZM11.2004 26.1034C12.2143 26.3065 13.2412 26.4895 14.3035 26.5252L14.3204 26.0255C13.3017 25.9912 12.3088 25.8155 11.2985 25.6131L11.2004 26.1034ZM8.50297 24.7037C9.2816 25.3334 10.1453 25.8911 11.2001 26.1033L11.2988 25.6132C10.3601 25.4243 9.57147 24.9248 8.81739 24.3149L8.50297 24.7037ZM5.99909 22.5894C6.82386 23.302 7.65098 24.0166 8.50324 24.7039L8.81712 24.3147C7.97255 23.6336 7.15181 22.9245 6.32597 22.211L5.99909 22.5894ZM5.99973 22.5899L5.99983 22.59L6.32523 22.2104L6.32513 22.2103L5.99973 22.5899ZM5.99913 22.5894L5.99946 22.5897L6.3254 22.2105L6.32507 22.2103L5.99913 22.5894ZM5.99759 22.5881L5.99799 22.5884L6.32621 22.2112L6.32581 22.2109L5.99759 22.5881ZM5.10986 21.8233C5.40675 22.0776 5.70235 22.333 5.99825 22.5887L6.32514 22.2103C6.02937 21.9548 5.73295 21.6987 5.43509 21.4436L5.10986 21.8233ZM4.4959 21.2541C4.69292 21.4439 4.89559 21.6392 5.10951 21.823L5.43544 21.4439C5.23405 21.2708 5.04151 21.0854 4.84277 20.894L4.4959 21.2541ZM4.50526 21.2626L4.50529 21.2627L4.83338 20.8854L4.83334 20.8853L4.50526 21.2626ZM4.24411 21.0132C4.32814 21.0925 4.4115 21.1728 4.49587 21.2541L4.84274 20.8939C4.75867 20.813 4.67348 20.7309 4.58729 20.6496L4.24411 21.0132ZM4.37795 20.2968C4.27409 20.3385 4.10845 20.4283 4.07744 20.6189C4.04749 20.8029 4.16785 20.941 4.24385 21.0129L4.58756 20.6498C4.56456 20.6281 4.55992 20.6186 4.56169 20.6219C4.56435 20.6269 4.57801 20.6558 4.57095 20.6992C4.56368 20.7439 4.54024 20.7689 4.533 20.7753C4.52808 20.7797 4.5341 20.7729 4.56429 20.7608L4.37795 20.2968ZM6.84644 18.8211C6.04266 19.3929 5.26836 19.9424 4.37866 20.2965L4.56358 20.7611C5.51835 20.381 6.34056 19.7946 7.13629 19.2285L6.84644 18.8211ZM7.18402 18.5817C7.07099 18.6613 6.95842 18.7414 6.84644 18.8211L7.13629 19.2285C7.24843 19.1487 7.36005 19.0693 7.47195 18.9905L7.18402 18.5817ZM9.28381 17.227C8.57473 17.6568 7.86689 18.1007 7.18402 18.5817L7.47196 18.9905C8.14097 18.5192 8.83749 18.0822 9.543 17.6545L9.28381 17.227ZM11.542 16.932C10.8325 16.8524 10.0216 16.7819 9.28426 17.2267L9.54255 17.6548C10.1177 17.3078 10.7651 17.348 11.4863 17.4289L11.542 16.932ZM14.0373 17.6984C13.2545 17.326 12.4263 17.0325 11.5424 16.932L11.4859 17.4288C12.2965 17.5209 13.0696 17.7917 13.8225 18.1499L14.0373 17.6984ZM14.3451 17.7754C14.2406 17.7754 14.1377 17.7503 14.0449 17.7022L13.8149 18.1462C13.9787 18.2311 14.1606 18.2754 14.3451 18.2754V17.7754ZM14.6454 17.7022C14.5526 17.7503 14.4496 17.7754 14.3451 17.7754V18.2754C14.5297 18.2754 14.7115 18.2311 14.8754 18.1462L14.6454 17.7022ZM18.1395 16.8899C16.8849 16.8341 15.7404 17.2007 14.6564 17.6969L14.8644 18.1515C15.9153 17.6706 16.9758 17.3386 18.1173 17.3894L18.1395 16.8899ZM19.5064 17.2865C19.0846 17.0062 18.6119 16.9114 18.1398 16.8899L18.117 17.3894C18.5403 17.4087 18.912 17.4918 19.2296 17.7029L19.5064 17.2865ZM20.7736 18.1327C20.3526 17.8496 19.9304 17.5658 19.5055 17.2859L19.2305 17.7035C19.6531 17.9818 20.0732 18.2643 20.4946 18.5476L20.7736 18.1327ZM20.8108 18.1634L20.8108 18.1634L20.4573 18.517L20.4573 18.517L20.8108 18.1634ZM20.8109 18.1634L20.8108 18.1634L20.4573 18.517L20.4573 18.517L20.8109 18.1634ZM22.6603 19.3822C22.0268 18.9754 21.4015 18.555 20.7736 18.1328L20.4946 18.5477C21.1217 18.9694 21.7515 19.3928 22.3902 19.8029L22.6603 19.3822ZM24.0654 20.1678C23.5804 19.9154 23.1061 19.6684 22.6604 19.3822L22.3902 19.8029C22.8583 20.1035 23.353 20.3608 23.8346 20.6114L24.0654 20.1678ZM24.0619 20.166L24.0618 20.166L23.8382 20.6132L23.8383 20.6132L24.0619 20.166ZM24.2839 20.2817C24.2111 20.2436 24.1382 20.2057 24.0655 20.1678L23.8347 20.6114C23.9074 20.6492 23.9799 20.687 24.0522 20.7248L24.2839 20.2817ZM24.4255 21.0331C24.4816 20.9799 24.5371 20.9167 24.5718 20.8419C24.6107 20.7579 24.6236 20.6569 24.5832 20.5556C24.5479 20.467 24.4834 20.4092 24.4369 20.3744C24.3885 20.3381 24.333 20.3074 24.284 20.2817L24.0522 20.7248C24.0737 20.736 24.0914 20.7457 24.1061 20.7544C24.121 20.7632 24.1308 20.7698 24.1369 20.7744C24.1433 20.7792 24.1429 20.7797 24.1393 20.7757C24.1356 20.7714 24.1264 20.7599 24.1188 20.7409C24.1107 20.7207 24.1068 20.6976 24.1082 20.6746C24.1095 20.6527 24.1153 20.6378 24.1182 20.6316C24.1208 20.626 24.1213 20.6269 24.115 20.6348C24.1089 20.6425 24.0984 20.6543 24.0813 20.6705L24.4255 21.0331ZM19.133 25.4365C21.0819 24.1711 22.7657 22.599 24.425 21.0337L24.0819 20.67C22.4191 22.2386 20.7662 23.78 18.8607 25.0171L19.133 25.4365ZM16.67 26.2594C17.5143 26.1351 18.3651 25.9332 19.1326 25.4367L18.8611 25.0169C18.1834 25.4552 17.4169 25.6441 16.5972 25.7648L16.67 26.2594ZM15.0529 26.4487C15.5896 26.3937 16.1323 26.3382 16.6698 26.2595L16.5974 25.7648C16.0723 25.8416 15.5405 25.8961 15.0019 25.9513L15.0529 26.4487ZM14.3395 26.5238C14.5765 26.4975 14.8141 26.4732 15.0529 26.4487L15.0019 25.9513C14.7635 25.9757 14.5238 26.0003 14.2844 26.0269L14.3395 26.5238ZM6.36554 21.2175C6.32196 21.1703 6.28332 21.1187 6.25021 21.0636L5.8216 21.3211C5.87223 21.4053 5.93131 21.4842 5.99794 21.5565L6.36554 21.2175ZM7.13468 21.8573C6.87076 21.6364 6.60652 21.4153 6.34166 21.1948L6.02182 21.5792C6.28606 21.7991 6.54975 22.0198 6.81377 22.2407L7.13468 21.8573ZM7.13297 21.8559L7.13281 21.8558L6.81565 22.2423L6.81582 22.2424L7.13297 21.8559ZM7.13314 21.856L7.13297 21.8559L6.81582 22.2424L6.81598 22.2426L7.13314 21.856ZM7.13331 21.8562L7.13314 21.856L6.81598 22.2426L6.81615 22.2427L7.13331 21.8562ZM7.13348 21.8563L7.13331 21.8562L6.81615 22.2427L6.81632 22.2429L7.13348 21.8563ZM7.13364 21.8565L7.13348 21.8563L6.81632 22.2429L6.81649 22.243L7.13364 21.8565ZM7.13381 21.8566L7.13364 21.8565L6.81649 22.243L6.81665 22.2431L7.13381 21.8566ZM7.13398 21.8567L7.13381 21.8566L6.81665 22.2431L6.81682 22.2433L7.13398 21.8567ZM7.13415 21.8569L7.13398 21.8567L6.81682 22.2433L6.81699 22.2434L7.13415 21.8569ZM7.13431 21.857L7.13415 21.8569L6.81699 22.2434L6.81715 22.2435L7.13431 21.857ZM7.13448 21.8571L7.13431 21.857L6.81715 22.2435L6.81732 22.2437L7.13448 21.8571ZM7.13465 21.8573L7.13448 21.8571L6.81732 22.2437L6.81749 22.2438L7.13465 21.8573ZM7.13482 21.8574L7.13465 21.8573L6.81749 22.2438L6.81766 22.244L7.13482 21.8574ZM7.13498 21.8576L7.13482 21.8574L6.81766 22.244L6.81782 22.2441L7.13498 21.8576ZM7.13263 21.8556L7.13258 21.8556L6.82023 22.246L6.82028 22.2461L7.13263 21.8556ZM7.12648 21.8509L7.12645 21.8509L6.82645 22.2509L6.82648 22.2509L7.12648 21.8509ZM7.1265 21.8509L7.12648 21.8509L6.82648 22.2509L6.8265 22.2509L7.1265 21.8509ZM7.12652 21.8509L7.1265 21.8509L6.8265 22.2509L6.82652 22.2509L7.12652 21.8509ZM7.12654 21.8509L7.12652 21.8509L6.82652 22.2509L6.82654 22.2509L7.12654 21.8509ZM7.12657 21.8509L7.12654 21.8509L6.82654 22.2509L6.82657 22.2509L7.12657 21.8509ZM7.12659 21.851L7.12657 21.8509L6.82657 22.2509L6.82659 22.251L7.12659 21.851ZM7.12661 21.851L7.12659 21.851L6.82659 22.251L6.82661 22.251L7.12661 21.851ZM7.12664 21.851L7.12661 21.851L6.82661 22.251L6.82664 22.251L7.12664 21.851ZM7.12666 21.851L7.12664 21.851L6.82664 22.251L6.82666 22.251L7.12666 21.851ZM7.12668 21.851L7.12666 21.851L6.82666 22.251L6.82668 22.251L7.12668 21.851ZM7.12671 21.851L7.12668 21.851L6.82668 22.251L6.82671 22.251L7.12671 21.851ZM7.12673 21.8511L7.12671 21.851L6.82671 22.251L6.82673 22.2511L7.12673 21.8511ZM9.55433 23.8476C8.73887 23.1998 7.93942 22.5308 7.13718 21.8593L6.81628 22.2428C7.61769 22.9135 8.42203 23.5867 9.24332 24.2391L9.55433 23.8476ZM11.096 24.7162C10.5258 24.5638 10.0371 24.2309 9.55428 23.8476L9.24336 24.2392C9.73766 24.6316 10.2931 25.0192 10.9669 25.1993L11.096 24.7162ZM17.3844 24.759C15.2909 25.3102 13.1921 25.2773 11.0961 24.7162L10.9668 25.1992C13.1422 25.7815 15.3295 25.8171 17.5118 25.2425L17.3844 24.759ZM18.528 24.2556C18.1732 24.4794 17.7871 24.6492 17.3824 24.7596L17.5138 25.242C17.9664 25.1186 18.3981 24.9287 18.7948 24.6785L18.528 24.2556ZM21.9073 21.5822C20.8178 22.5466 19.7444 23.4962 18.529 24.2549L18.7938 24.6791C20.0504 23.8945 21.1545 22.9164 22.2387 21.9565L21.9073 21.5822ZM21.9957 21.5039L21.9073 21.5822L22.2387 21.9565L22.3271 21.8783L21.9957 21.5039ZM22.3059 21.2159C22.201 21.3154 22.0994 21.4117 21.9953 21.5042L22.3275 21.8779C22.4387 21.7791 22.5461 21.6772 22.65 21.5786L22.3059 21.2159ZM22.3012 21.2205L22.3012 21.2205L22.6547 21.574L22.6547 21.574L22.3012 21.2205ZM22.4722 21.059C22.4161 21.1113 22.3605 21.164 22.3059 21.2159L22.65 21.5786C22.7049 21.5265 22.7589 21.4753 22.8131 21.4248L22.4722 21.059ZM22.3775 21.2452L22.4081 21.3283L22.8773 21.1555L22.8466 21.0723L22.3775 21.2452ZM22.3387 21.3871C22.4223 21.3944 22.5081 21.402 22.5942 21.4081L22.6299 20.9094C22.5485 20.9036 22.4667 20.8964 22.3824 20.889L22.3387 21.3871ZM22.3313 21.3863L22.3314 21.3864L22.3898 20.8898L22.3897 20.8898L22.3313 21.3863ZM22.3457 21.3876L22.3458 21.3876L22.3752 20.8885L22.3751 20.8885L22.3457 21.3876ZM22.3604 21.3881H22.3604V20.8881H22.3604V21.3881ZM22.3603 21.3881H22.3604V20.8881H22.3603V21.3881ZM22.3603 21.3881H22.3603V20.8881H22.3603V21.3881ZM22.3603 21.3881H22.3603V20.8881H22.3603V21.3881ZM22.3603 21.3881H22.3603V20.8881H22.3603V21.3881ZM22.3602 21.3881H22.3603V20.8881H22.3602V21.3881ZM22.3602 21.3881H22.3602V20.8881H22.3602V21.3881ZM22.3602 21.3881H22.3602V20.8881H22.3602V21.3881ZM22.3602 21.3881H22.3602V20.8881H22.3602V21.3881ZM22.3602 21.3881H22.3602V20.8881H22.3602V21.3881ZM22.3601 21.3881H22.3602V20.8881H22.3601V21.3881ZM22.3601 21.3881H22.3601V20.8881H22.3601V21.3881ZM21.8116 21.3541C21.9824 21.3559 22.1548 21.371 22.3382 21.3871L22.382 20.889C22.2019 20.8732 22.0103 20.8562 21.8171 20.8541L21.8116 21.3541ZM21.2321 21.3476C21.425 21.3499 21.6183 21.3521 21.8118 21.3541L21.8168 20.8541C21.6238 20.8522 21.431 20.8499 21.238 20.8476L21.2321 21.3476ZM18.7658 21.3453C19.5857 21.3282 20.4053 21.3379 21.2321 21.3476L21.238 20.8476C20.4125 20.8379 19.5848 20.8282 18.7554 20.8454L18.7658 21.3453ZM17.4732 21.7889C17.924 21.5556 18.3211 21.3548 18.766 21.3453L18.7552 20.8454C18.1755 20.8578 17.6761 21.1209 17.2434 21.3448L17.4732 21.7889ZM17.4759 21.7874L17.4759 21.7874L17.2406 21.3462L17.2406 21.3462L17.4759 21.7874ZM17.4758 21.7874L17.4759 21.7874L17.2406 21.3462L17.2406 21.3463L17.4758 21.7874ZM17.4758 21.7875L17.4758 21.7874L17.2406 21.3463L17.2405 21.3463L17.4758 21.7875ZM17.4758 21.7875L17.4758 21.7875L17.2405 21.3463L17.2405 21.3463L17.4758 21.7875ZM17.4757 21.7875L17.4758 21.7875L17.2405 21.3463L17.2404 21.3463L17.4757 21.7875ZM17.4757 21.7875L17.4757 21.7875L17.2404 21.3463L17.2404 21.3464L17.4757 21.7875ZM17.4756 21.7876L17.4757 21.7875L17.2404 21.3464L17.2403 21.3464L17.4756 21.7876ZM17.4756 21.7876L17.4756 21.7876L17.2403 21.3464L17.2403 21.3464L17.4756 21.7876ZM17.4755 21.7876L17.4756 21.7876L17.2403 21.3464L17.2403 21.3464L17.4755 21.7876ZM17.4755 21.7876L17.4755 21.7876L17.2403 21.3464L17.2402 21.3465L17.4755 21.7876ZM17.4755 21.7877L17.4755 21.7876L17.2402 21.3465L17.2402 21.3465L17.4755 21.7877ZM17.4754 21.7877L17.4755 21.7877L17.2402 21.3465L17.2401 21.3465L17.4754 21.7877ZM17.4754 21.7877L17.4754 21.7877L17.2401 21.3465L17.2401 21.3465L17.4754 21.7877ZM17.1184 21.9677C17.2385 21.9103 17.3574 21.8488 17.4726 21.7892L17.2428 21.3451C17.1264 21.4053 17.0146 21.4631 16.9028 21.5165L17.1184 21.9677ZM11.8755 22.0927C13.6495 22.9032 15.3964 22.7872 17.118 21.9679L16.9032 21.5164C15.2969 22.2808 13.7056 22.3791 12.0832 21.6379L11.8755 22.0927ZM11.6281 21.977C11.7092 22.0154 11.792 22.0546 11.8754 22.0927L12.0833 21.638C12.0034 21.6014 11.9235 21.5637 11.842 21.5251L11.6281 21.977ZM11.6264 21.9762L11.6267 21.9763L11.8433 21.5257L11.843 21.5256L11.6264 21.9762ZM10.9724 21.6926C11.19 21.7699 11.4023 21.8702 11.6278 21.9769L11.8417 21.5249C11.6201 21.4201 11.3852 21.3087 11.14 21.2215L10.9724 21.6926ZM10.7021 21.5909C10.7901 21.6248 10.881 21.6599 10.972 21.6924L11.1404 21.2216C11.0561 21.1915 10.9709 21.1586 10.8819 21.1243L10.7021 21.5909ZM10.6991 21.5897L10.6992 21.5897L10.8849 21.1255L10.8848 21.1255L10.6991 21.5897ZM10.6991 21.5897L10.6991 21.5897L10.8848 21.1255L10.8848 21.1255L10.6991 21.5897ZM10.6991 21.5897L10.6991 21.5897L10.8848 21.1255L10.8848 21.1255L10.6991 21.5897ZM10.699 21.5897L10.6991 21.5897L10.8848 21.1255L10.8847 21.1255L10.699 21.5897ZM10.699 21.5897L10.699 21.5897L10.8847 21.1255L10.8847 21.1254L10.699 21.5897ZM10.699 21.5897L10.699 21.5897L10.8847 21.1254L10.8847 21.1254L10.699 21.5897ZM10.699 21.5897L10.699 21.5897L10.8847 21.1254L10.8847 21.1254L10.699 21.5897ZM10.6989 21.5896L10.699 21.5897L10.8847 21.1254L10.8846 21.1254L10.6989 21.5896ZM10.6989 21.5896L10.6989 21.5896L10.8846 21.1254L10.8846 21.1254L10.6989 21.5896ZM10.6989 21.5896L10.6989 21.5896L10.8846 21.1254L10.8846 21.1254L10.6989 21.5896ZM10.6988 21.5896L10.6989 21.5896L10.8846 21.1254L10.8845 21.1254L10.6988 21.5896ZM10.6988 21.5896L10.6988 21.5896L10.8845 21.1254L10.8845 21.1254L10.6988 21.5896ZM10.6988 21.5896L10.6988 21.5896L10.8845 21.1254L10.8845 21.1254L10.6988 21.5896ZM9.80602 21.3474C10.0831 21.3552 10.3697 21.4628 10.7017 21.5907L10.8815 21.1242C10.5677 21.0033 10.1986 20.8582 9.81997 20.8476L9.80602 21.3474ZM7.18976 21.3635C8.06765 21.3427 8.93764 21.3222 9.80574 21.3474L9.82025 20.8476C8.93679 20.822 8.05362 20.8429 7.17794 20.8636L7.18976 21.3635ZM6.27283 21.3832C6.57888 21.3779 6.88479 21.3707 7.18976 21.3635L7.17794 20.8636C6.87271 20.8708 6.56838 20.878 6.26419 20.8833L6.27283 21.3832ZM6.11989 21.4275C6.18021 21.4058 6.24251 21.39 6.30591 21.3804L6.23111 20.8861C6.13547 20.9005 6.04148 20.9243 5.95047 20.9571L6.11989 21.4275ZM6.03591 20.9423H6.03518V21.4423H6.03591V20.9423ZM21.6361 20.2671C21.6772 20.3053 21.7151 20.3468 21.7496 20.3911L22.1445 20.0846C22.0936 20.0189 22.0374 19.9575 21.9766 19.9009L21.6361 20.2671ZM21.2125 19.9853L21.6666 20.2913L21.946 19.8767L21.4919 19.5706L21.2125 19.9853ZM18.9707 18.4851C19.7212 18.9801 20.4663 19.4823 21.2124 19.9853L21.4919 19.5706C20.7461 19.0679 19.9989 18.5643 19.2461 18.0677L18.9707 18.4851ZM17.9171 18.2048C18.3161 18.2035 18.6644 18.2829 18.9707 18.485L19.2461 18.0677C18.8364 17.7974 18.384 17.7033 17.9154 17.7048L17.9171 18.2048ZM15.0441 18.9733C15.9671 18.5276 16.9047 18.209 17.9173 18.2048L17.9152 17.7048C16.7972 17.7094 15.782 18.0617 14.8267 18.523L15.0441 18.9733ZM13.6528 18.9747C13.8905 19.0992 14.1189 19.1633 14.3568 19.159C14.5925 19.1547 14.816 19.0838 15.0444 18.9732L14.8264 18.5232C14.6363 18.6152 14.4861 18.6566 14.3478 18.6591C14.2119 18.6615 14.0662 18.6268 13.8847 18.5318L13.6528 18.9747ZM11.3792 18.2439C12.1733 18.3562 12.9422 18.6034 13.6529 18.9748L13.8845 18.5317C13.1233 18.1338 12.2997 17.8691 11.4492 17.7488L11.3792 18.2439ZM9.54967 18.5853C10.1008 18.1988 10.7037 18.1453 11.3781 18.2438L11.4503 17.749C10.7058 17.6403 9.95686 17.689 9.26256 18.176L9.54967 18.5853ZM7.84011 19.7441C8.41118 19.3646 8.98578 18.9827 9.55013 18.585L9.2621 18.1763C8.70427 18.5694 8.13539 18.9475 7.56337 19.3276L7.84011 19.7441ZM7.83881 19.7449L7.8393 19.7446L7.56418 19.3271L7.56369 19.3274L7.83881 19.7449ZM7.05922 20.2652C7.31833 20.0908 7.5786 19.9179 7.83962 19.7444L7.56287 19.328C7.30206 19.5013 7.04059 19.6751 6.7801 19.8503L7.05922 20.2652ZM6.95365 20.385C6.99343 20.3343 7.03764 20.2874 7.08577 20.2446L6.75355 19.8709C6.68322 19.9334 6.6186 20.0021 6.56046 20.0761L6.95365 20.385ZM6.92917 19.9943C6.88469 19.9902 6.83368 19.9855 6.77543 19.9812L6.73868 20.4799C6.79201 20.4838 6.83899 20.4881 6.88363 20.4922L6.92917 19.9943ZM6.92185 19.9937L6.92176 19.9937L6.89105 20.4927L6.89114 20.4927L6.92185 19.9937ZM7.12164 20.0068C7.06862 20.0068 7.01359 20.002 6.92924 19.9943L6.88375 20.4922C6.96293 20.4994 7.04159 20.5068 7.12164 20.5068V20.0068ZM9.54976 20.0068H7.12164V20.5068H9.54976V20.0068ZM11.3199 20.3961C10.7668 20.1301 10.1593 19.9968 9.54567 20.0068L9.55385 20.5068C10.0897 20.498 10.6202 20.6144 11.1032 20.8467L11.3199 20.3961ZM12.7822 21.0292C12.2839 20.8268 11.7942 20.6272 11.321 20.3966L11.102 20.8461C11.5928 21.0852 12.0978 21.2909 12.594 21.4925L12.7822 21.0292ZM15.7249 21.0983C14.7694 21.4391 13.7216 21.4146 12.783 21.0296L12.5932 21.4922C13.6459 21.924 14.8212 21.9515 15.8929 21.5693L15.7249 21.0983ZM16.8259 20.6373C16.4729 20.8182 16.1067 20.9717 15.7302 21.0965L15.8876 21.5711C16.2883 21.4382 16.6782 21.2748 17.0539 21.0823L16.8259 20.6373ZM19.6285 19.997C18.6199 19.9401 17.699 20.1834 16.8245 20.638L17.0552 21.0816C17.8636 20.6613 18.6957 20.4452 19.6004 20.4962L19.6285 19.997ZM20.9876 20.0094C20.5266 20.0157 20.0758 20.0218 19.6283 19.997L19.6006 20.4962C20.0683 20.5222 20.5364 20.5157 20.9944 20.5094L20.9876 20.0094ZM21.5513 20.0039C21.3627 20.0043 21.1743 20.0069 20.9876 20.0094L20.9944 20.5094C21.1816 20.5068 21.3672 20.5043 21.5524 20.5039L21.5513 20.0039ZM21.8076 19.9959C21.6938 20.0033 21.6283 20.0072 21.5636 20.0042L21.5401 20.5036C21.638 20.5082 21.7328 20.5018 21.8398 20.4949L21.8076 19.9959ZM21.9321 19.9882C21.886 19.9909 21.8446 19.9935 21.8076 19.9959L21.8398 20.4949C21.8769 20.4925 21.9165 20.4899 21.9605 20.4874L21.9321 19.9882ZM21.9471 19.9878H21.9463V20.4878H21.9471V19.9878ZM12.8878 14.9561C13.101 15.0972 13.3528 15.106 13.5547 14.9852C13.7534 14.8663 13.8686 14.6438 13.8686 14.3918H13.3686C13.3686 14.4919 13.3263 14.5392 13.298 14.5562C13.273 14.5711 13.2283 14.5818 13.1637 14.5391L12.8878 14.9561ZM12.4096 14.5437C12.5461 14.6781 12.7035 14.8343 12.8879 14.9562L13.1636 14.5391C13.0267 14.4486 12.9034 14.3283 12.7605 14.1875L12.4096 14.5437ZM12.2875 14.4248C12.3277 14.4631 12.3678 14.5025 12.4096 14.5437L12.7605 14.1875C12.7191 14.1468 12.6761 14.1044 12.6323 14.0627L12.2875 14.4248ZM11.8168 13.9425C11.9664 14.1135 12.1279 14.2764 12.2897 14.4268L12.6302 14.0607C12.4784 13.9195 12.3293 13.7689 12.1931 13.6132L11.8168 13.9425ZM11.6523 13.535C11.655 13.6908 11.7169 13.8398 11.8254 13.9518L12.1845 13.6039C12.1643 13.583 12.1527 13.5552 12.1522 13.5262L11.6523 13.535ZM11.8106 13.1123C11.7061 13.228 11.6495 13.3791 11.6523 13.5349L12.1522 13.5262C12.1517 13.4971 12.1623 13.4689 12.1817 13.4474L11.8106 13.1123ZM12.6428 13.0084C12.5103 12.8906 12.3439 12.846 12.1806 12.8779C12.0238 12.9084 11.8914 13.0046 11.7972 13.1285L12.1952 13.4312C12.2307 13.3844 12.2631 13.3712 12.2764 13.3686C12.2825 13.3674 12.2863 13.3679 12.2891 13.3687C12.292 13.3695 12.2994 13.3721 12.3106 13.3821L12.6428 13.0084ZM13.554 13.8771C13.2603 13.5846 12.9603 13.2857 12.6411 13.0069L12.3122 13.3835C12.617 13.6497 12.9055 13.9369 13.2012 14.2314L13.554 13.8771ZM13.5544 13.8775L13.5544 13.8775L13.2008 14.231L13.2008 14.2311L13.5544 13.8775ZM13.5544 13.8776L13.5544 13.8775L13.2008 14.2311L13.2009 14.2311L13.5544 13.8776ZM13.7463 14.0683C13.6822 14.0049 13.6183 13.9412 13.5541 13.8772L13.2012 14.2315C13.2654 14.2954 13.3298 14.3596 13.3946 14.4236L13.7463 14.0683ZM13.8581 14.3164C13.8555 14.3008 13.8496 14.2638 13.8378 14.2256C13.8265 14.1888 13.803 14.1271 13.7506 14.0726L13.3903 14.4193C13.3767 14.4052 13.369 14.3922 13.3652 14.3848C13.3614 14.3774 13.36 14.3727 13.3599 14.3727C13.3599 14.3725 13.3605 14.3744 13.3615 14.3794C13.3626 14.3847 13.3636 14.3904 13.3652 14.3999L13.8581 14.3164ZM13.8569 14.3162C13.8586 14.3215 13.8595 14.3254 13.8599 14.327C13.8603 14.3287 13.8605 14.3295 13.8603 14.3289C13.8602 14.3283 13.86 14.3271 13.8596 14.3248C13.8592 14.3225 13.8587 14.3199 13.8581 14.3164L13.3652 14.3999C13.3662 14.406 13.3711 14.4385 13.3803 14.4674L13.8569 14.3162ZM16.5339 13.541L16.5339 13.5411L17.0082 13.6992L17.0082 13.6992L16.5339 13.541ZM16.6058 13.3823C16.5791 13.4347 16.5582 13.4829 16.5419 13.5203L17.0003 13.7199C17.017 13.6815 17.0322 13.6467 17.051 13.6099L16.6058 13.3823ZM16.5417 13.5186C16.5647 13.555 16.5961 13.6051 16.6318 13.6506L17.025 13.3417C17.0079 13.3199 16.9902 13.2924 16.9642 13.2512L16.5417 13.5186ZM16.5449 13.5236L16.5449 13.5236L16.9609 13.2463L16.9609 13.2463L16.5449 13.5236ZM16.5449 13.5236L16.5449 13.5236L16.9609 13.2463L16.9609 13.2462L16.5449 13.5236ZM16.5449 13.5236L16.5449 13.5236L16.9609 13.2462L16.9609 13.2462L16.5449 13.5236ZM16.5449 13.5236L16.5449 13.5236L16.9609 13.2462L16.9609 13.2462L16.5449 13.5236ZM16.5449 13.5236L16.5449 13.5236L16.9609 13.2462L16.9609 13.2462L16.5449 13.5236ZM16.5449 13.5236L16.5449 13.5236L16.9609 13.2462L16.9609 13.2462L16.5449 13.5236ZM16.5449 13.5236L16.5449 13.5236L16.9609 13.2462L16.9609 13.2462L16.5449 13.5236ZM16.5449 13.5235L16.5449 13.5236L16.9609 13.2462L16.9609 13.2462L16.5449 13.5235ZM16.5449 13.5235L16.5449 13.5235L16.9609 13.2462L16.9609 13.2462L16.5449 13.5235ZM16.5409 13.5173L16.5409 13.5174L16.9649 13.2524L16.9649 13.2523L16.5409 13.5173ZM16.4782 13.4163C16.4586 13.4087 16.4582 13.4008 16.476 13.4223C16.4937 13.4436 16.5123 13.4722 16.5416 13.5185L16.9641 13.2511C16.9388 13.2112 16.9029 13.1537 16.8609 13.1031C16.8191 13.0527 16.754 12.9871 16.6595 12.9504L16.4782 13.4163ZM16.3095 13.4248C16.3023 13.4309 16.3024 13.4284 16.3169 13.4233C16.3303 13.4186 16.3495 13.4141 16.3731 13.4116C16.4243 13.406 16.4673 13.4126 16.4852 13.4189L16.6525 12.9477C16.5471 12.9103 16.4254 12.903 16.3194 12.9144C16.2184 12.9253 16.0853 12.9583 15.9838 13.0454L16.3095 13.4248ZM15.3382 14.3691C15.6462 14.0373 15.971 13.7215 16.3115 13.4231L15.9819 13.0471C15.6285 13.3569 15.2914 13.6846 14.9717 14.029L15.3382 14.3691ZM15.3703 14.533C15.3279 14.4831 15.3154 14.4441 15.3136 14.4236C15.3128 14.4144 15.3139 14.4077 15.316 14.4017C15.3181 14.3958 15.3232 14.3851 15.337 14.3705L14.973 14.0276C14.8545 14.1535 14.8017 14.3083 14.8155 14.4671C14.8287 14.6179 14.8997 14.7514 14.9893 14.8568L15.3703 14.533ZM15.615 14.4855C15.5334 14.5594 15.4747 14.5739 15.447 14.5746C15.426 14.5751 15.4009 14.5691 15.3703 14.533L14.9893 14.8568C15.1074 14.9957 15.2719 15.079 15.4593 15.0744C15.6399 15.07 15.8084 14.9849 15.9506 14.8561L15.615 14.4855ZM16.4144 13.701C16.148 13.9752 15.8905 14.2399 15.6164 14.4842L15.9492 14.8574C16.2388 14.5992 16.5086 14.3215 16.7729 14.0495L16.4144 13.701ZM16.4169 13.6985L16.4169 13.6985L16.7704 14.0521L16.7705 14.052L16.4169 13.6985ZM16.4169 13.6985L16.4169 13.6985L16.7705 14.052L16.7705 14.052L16.4169 13.6985ZM16.4169 13.6985L16.4169 13.6985L16.7705 14.052L16.7705 14.052L16.4169 13.6985ZM16.4169 13.6984L16.4169 13.6985L16.7705 14.052L16.7705 14.052L16.4169 13.6984ZM16.417 13.6984L16.4169 13.6984L16.7705 14.052L16.7705 14.052L16.417 13.6984ZM16.417 13.6984L16.417 13.6984L16.7705 14.052L16.7705 14.052L16.417 13.6984ZM16.417 13.6984L16.417 13.6984L16.7705 14.052L16.7706 14.0519L16.417 13.6984ZM16.417 13.6984L16.417 13.6984L16.7706 14.0519L16.7706 14.0519L16.417 13.6984ZM16.4123 13.7032L16.4123 13.7032L16.7753 14.0471L16.7753 14.0471L16.4123 13.7032ZM16.4917 13.6215L16.4146 13.7009L16.773 14.0494L16.8502 13.9701L16.4917 13.6215ZM16.5419 13.5203C16.5251 13.5589 16.5148 13.582 16.5048 13.6008C16.4956 13.6179 16.4914 13.6218 16.4922 13.621L16.8497 13.9706C16.9308 13.8877 16.9739 13.7806 17.0003 13.7199L16.5419 13.5203ZM19.8226 5.64778C19.6896 5.52307 19.5124 5.45633 19.3301 5.46226L19.3463 5.96199C19.3961 5.96038 19.4444 5.97859 19.4808 6.01263L19.8226 5.64778ZM20.0398 6.12728C20.0338 5.94498 19.9557 5.7725 19.8227 5.64778L19.4808 6.01263C19.5171 6.04668 19.5384 6.09377 19.54 6.14353L20.0398 6.12728ZM19.8542 6.61987C19.979 6.48678 20.0457 6.30959 20.0398 6.12728L19.54 6.14353C19.5417 6.19328 19.5234 6.24165 19.4894 6.27799L19.8542 6.61987ZM19.3747 6.83699C19.557 6.83107 19.7295 6.75296 19.8542 6.61987L19.4894 6.27799C19.4553 6.31432 19.4083 6.33564 19.3585 6.33726L19.3747 6.83699ZM18.8822 6.65146C19.0152 6.77617 19.1924 6.84292 19.3747 6.83699L19.3585 6.33726C19.3087 6.33887 19.2604 6.32066 19.224 6.28661L18.8822 6.65146ZM18.665 6.17196C18.671 6.35427 18.7491 6.52675 18.8822 6.65146L19.224 6.28661C19.1877 6.25256 19.1664 6.20548 19.1648 6.15572L18.665 6.17196ZM18.8506 5.67938C18.7259 5.81247 18.6591 5.98966 18.665 6.17196L19.1648 6.15572C19.1632 6.10597 19.1814 6.0576 19.2154 6.02126L18.8506 5.67938ZM19.3301 5.46226C19.1478 5.46818 18.9753 5.54628 18.8506 5.67938L19.2154 6.02126C19.2495 5.98493 19.2965 5.96361 19.3463 5.96199L19.3301 5.46226ZM23.5231 5.62474C23.5237 5.67478 23.5051 5.72315 23.4711 5.75988L23.838 6.09949C23.9589 5.96883 24.0252 5.79678 24.023 5.61876L23.5231 5.62474ZM23.5105 5.55245C23.5192 5.57317 23.5234 5.59543 23.5231 5.61785L24.023 5.62565C24.0244 5.5346 24.0071 5.44423 23.9721 5.36019L23.5105 5.55245ZM23.4729 5.49748C23.4891 5.51304 23.5019 5.53175 23.5105 5.55245L23.9721 5.36019C23.9371 5.27612 23.8851 5.20017 23.8195 5.13707L23.4729 5.49748ZM23.4166 5.46207C23.4376 5.46987 23.4567 5.48192 23.4729 5.49749L23.8195 5.13706C23.7539 5.07397 23.676 5.02504 23.5906 4.99334L23.4166 5.46207ZM23.3507 5.4521C23.3731 5.45087 23.3955 5.45427 23.4166 5.46208L23.5906 4.99334C23.5052 4.96164 23.4142 4.94787 23.3233 4.95286L23.3507 5.4521ZM23.2366 5.46082C23.2616 5.45225 23.2881 5.44906 23.3144 5.45145L23.3596 4.95351C23.2632 4.94474 23.166 4.95644 23.0744 4.98786L23.2366 5.46082ZM23.1694 5.50117C23.1887 5.48314 23.2116 5.46939 23.2366 5.46082L23.0744 4.98786C22.9828 5.01928 22.8988 5.06969 22.8281 5.1358L23.1694 5.50117ZM23.1246 5.56545C23.1348 5.54109 23.1501 5.51919 23.1694 5.50117L22.8281 5.1358C22.7573 5.20193 22.7013 5.28224 22.6638 5.37149L23.1246 5.56545ZM23.1099 5.64242C23.1094 5.61606 23.1143 5.58983 23.1246 5.56545L22.6638 5.37149C22.6262 5.46071 22.6079 5.5569 22.6101 5.65375L23.1099 5.64242ZM23.1281 5.71867C23.1167 5.69482 23.1105 5.66884 23.1099 5.64243L22.6101 5.65374C22.6123 5.75056 22.6349 5.84583 22.6765 5.9333L23.1281 5.71867ZM23.1757 5.78085C23.1556 5.76371 23.1394 5.74252 23.1281 5.71867L22.6765 5.93329C22.718 6.02077 22.7776 6.09846 22.8513 6.1613L23.1757 5.78085ZM23.2447 5.81812C23.2193 5.81069 23.1958 5.79798 23.1757 5.78085L22.8513 6.1613C22.925 6.22414 23.0111 6.2707 23.1041 6.29794L23.2447 5.81812ZM23.3228 5.82395C23.2966 5.82753 23.27 5.82554 23.2447 5.81812L23.1041 6.29794C23.197 6.32517 23.2946 6.33246 23.3906 6.31934L23.3228 5.82395ZM23.4711 5.75988C23.4371 5.79661 23.3903 5.81891 23.3404 5.82218L23.3731 6.32111C23.5507 6.30947 23.7171 6.23015 23.838 6.09949L23.4711 5.75988ZM23.4951 8.73684C23.621 8.60427 23.6891 8.4271 23.6844 8.24428L23.1846 8.25714C23.1859 8.30735 23.1672 8.35605 23.1325 8.3925L23.4951 8.73684ZM23.0129 8.95125C23.1957 8.94655 23.3691 8.86942 23.4951 8.73684L23.1325 8.3925C23.0979 8.42893 23.0503 8.45013 23 8.45142L23.0129 8.95125ZM22.5203 8.76192C22.6529 8.88785 22.8301 8.95595 23.0129 8.95125L23 8.45142C22.9498 8.45271 22.9011 8.434 22.8647 8.39939L22.5203 8.76192ZM22.3059 8.27975C22.3106 8.46254 22.3878 8.63598 22.5203 8.76192L22.8647 8.39939C22.8283 8.36478 22.8071 8.31712 22.8058 8.26688L22.3059 8.27975ZM22.5075 7.79604C22.3859 7.92153 22.3143 8.08708 22.3061 8.26161L22.8056 8.28502C22.8081 8.23213 22.8298 8.18196 22.8666 8.14394L22.5075 7.79604ZM22.9664 7.58002C22.7922 7.59373 22.6291 7.67055 22.5075 7.79603L22.8666 8.14394C22.9034 8.10591 22.9529 8.08263 23.0057 8.07848L22.9664 7.58002ZM23.4632 7.77087C23.3348 7.65019 23.1659 7.58186 22.9897 7.57928L22.9824 8.07922C23.0339 8.07998 23.0832 8.09995 23.1208 8.13522L23.4632 7.77087ZM23.6838 8.23157C23.6703 8.05586 23.5916 7.89155 23.4632 7.77087L23.1208 8.13522C23.1583 8.17049 23.1813 8.21852 23.1852 8.26985L23.6838 8.23157ZM20.3627 8.41849C20.4118 8.42036 20.4582 8.44141 20.4919 8.47711L20.8554 8.13382C20.7318 8.0029 20.5617 7.92572 20.3818 7.91885L20.3627 8.41849ZM20.2409 8.47615C20.2781 8.44047 20.3273 8.41994 20.3788 8.41858L20.3656 7.91876C20.1897 7.9234 20.0218 7.99346 19.8948 8.11527L20.2409 8.47615ZM20.1776 8.61156C20.1811 8.56011 20.2037 8.51184 20.2409 8.47615L19.8948 8.11527C19.7678 8.23708 19.6908 8.40187 19.6788 8.57744L20.1776 8.61156ZM20.1861 8.68094C20.1787 8.6592 20.1757 8.63618 20.1775 8.61328L19.6789 8.57572C19.6721 8.66599 19.6836 8.75671 19.7129 8.84238L20.1861 8.68094ZM20.2206 8.73976C20.2052 8.72268 20.1935 8.70267 20.1861 8.68094L19.7129 8.84238C19.7421 8.92806 19.7884 9.00693 19.8489 9.07421L20.2206 8.73976ZM20.2755 8.78028C20.2546 8.77062 20.236 8.75684 20.2206 8.73976L19.8489 9.07421C19.9095 9.1415 19.9831 9.19583 20.0652 9.2339L20.2755 8.78028ZM20.3419 8.79597C20.3189 8.79528 20.2963 8.78994 20.2755 8.78028L20.0652 9.2339C20.1473 9.27198 20.2363 9.29301 20.3268 9.29574L20.3419 8.79597ZM20.4204 8.78479C20.3968 8.7935 20.3716 8.79737 20.3464 8.79615L20.3222 9.29556C20.4145 9.30003 20.5067 9.28587 20.5934 9.2539L20.4204 8.78479ZM20.484 8.74541C20.4657 8.76268 20.444 8.77607 20.4204 8.78479L20.5934 9.2539C20.6801 9.22193 20.7594 9.17283 20.8267 9.10951L20.484 8.74541ZM20.5272 8.68428C20.517 8.70735 20.5023 8.72814 20.484 8.74541L20.8267 9.10951C20.894 9.04619 20.9478 8.96996 20.9849 8.88539L20.5272 8.68428ZM20.543 8.61115C20.5427 8.63635 20.5373 8.66123 20.5272 8.68428L20.9849 8.88539C21.0221 8.80079 21.0418 8.70959 21.0429 8.61723L20.543 8.61115ZM20.4919 8.47712C20.5256 8.51282 20.5439 8.56032 20.543 8.60942L21.0429 8.61895C21.0463 8.43893 20.979 8.26474 20.8554 8.13382L20.4919 8.47712ZM22.0773 4.78431C22.1089 4.69922 22.123 4.60859 22.1188 4.51789L21.6193 4.54143C21.6204 4.5648 21.6168 4.58816 21.6086 4.61011L22.0773 4.78431ZM21.9347 5.01313C21.9972 4.94724 22.0457 4.86941 22.0773 4.78432L21.6086 4.6101C21.6005 4.63205 21.588 4.65211 21.5719 4.66909L21.9347 5.01313ZM21.7138 5.16769C21.7971 5.13158 21.8722 5.07901 21.9347 5.01313L21.5719 4.66909C21.5558 4.68606 21.5364 4.69961 21.5149 4.70892L21.7138 5.16769ZM21.4499 5.22324C21.5407 5.22269 21.6305 5.20379 21.7138 5.16769L21.5149 4.70892C21.4934 4.71824 21.4703 4.7231 21.4469 4.72325L21.4499 5.22324ZM21.1854 5.17087C21.2692 5.20597 21.3591 5.22378 21.4499 5.22324L21.4469 4.72325C21.4235 4.72339 21.4003 4.7188 21.3787 4.70974L21.1854 5.17087ZM20.9627 5.01898C21.0259 5.08411 21.1017 5.13577 21.1854 5.17087L21.3787 4.70974C21.3572 4.7007 21.3376 4.68738 21.3213 4.6706L20.9627 5.01898ZM20.8173 4.79191C20.85 4.87663 20.8994 4.95387 20.9627 5.01899L21.3213 4.67059C21.305 4.6538 21.2923 4.63389 21.2838 4.61206L20.8173 4.79191ZM20.7726 4.52601C20.7695 4.61674 20.7846 4.70718 20.8173 4.7919L21.2838 4.61207C21.2754 4.59023 21.2715 4.56692 21.2723 4.54352L20.7726 4.52601ZM20.9765 4.0664C20.8518 4.18756 20.7787 4.35225 20.7726 4.52601L21.2723 4.54352C21.2739 4.49872 21.2927 4.45627 21.3249 4.42505L20.9765 4.0664ZM21.4418 3.87597C21.2679 3.87702 21.1012 3.94525 20.9765 4.06641L21.3249 4.42504C21.357 4.39382 21.4 4.37623 21.4448 4.37596L21.4418 3.87597ZM21.9094 4.06078C21.7832 3.94114 21.6157 3.87492 21.4418 3.87597L21.4448 4.37596C21.4896 4.37569 21.5328 4.39276 21.5654 4.4236L21.9094 4.06078ZM22.1188 4.5179C22.1106 4.34421 22.0356 4.18042 21.9094 4.06078L21.5654 4.4236C21.5979 4.45444 21.6172 4.49666 21.6193 4.54143L22.1188 4.5179ZM9.12086 5.81288C9.09651 5.81426 9.07213 5.81073 9.04919 5.80249L8.88024 6.27309C8.96638 6.30401 9.05785 6.31726 9.1492 6.31208L9.12086 5.81288ZM9.26526 5.75935C9.23031 5.79336 9.18348 5.81242 9.13472 5.81248L9.13535 6.31248C9.31416 6.31225 9.48585 6.24237 9.61399 6.11765L9.26526 5.75935ZM9.3219 5.63029C9.32052 5.67904 9.3002 5.72533 9.26526 5.75935L9.61399 6.11765C9.74213 5.99293 9.81664 5.8232 9.8217 5.64446L9.3219 5.63029ZM9.30682 5.56355C9.31673 5.58682 9.32183 5.61185 9.3218 5.63716L9.8218 5.63759C9.82188 5.54486 9.8032 5.45305 9.76687 5.36771L9.30682 5.56355ZM9.26415 5.50174C9.28241 5.51927 9.29692 5.5403 9.30682 5.56355L9.76687 5.36771C9.73054 5.28235 9.67731 5.20526 9.61042 5.14104L9.26415 5.50174ZM9.20064 5.46162C9.2243 5.47057 9.2459 5.48422 9.26415 5.50174L9.61042 5.14104C9.54351 5.07682 9.46431 5.02679 9.37756 4.99397L9.20064 5.46162ZM9.12649 5.44966C9.15176 5.4486 9.17698 5.45267 9.20064 5.46162L9.37756 4.99397C9.29081 4.96115 9.19833 4.94623 9.10566 4.95009L9.12649 5.44966ZM9.04173 5.46339C9.0643 5.45414 9.0885 5.44954 9.11288 5.44985L9.11927 4.9499C9.02776 4.94873 8.93695 4.966 8.85227 5.00067L9.04173 5.46339ZM8.98151 5.50364C8.99868 5.48632 9.01916 5.47263 9.04173 5.46339L8.85227 5.00067C8.76758 5.03535 8.69075 5.08672 8.62634 5.15172L8.98151 5.50364ZM8.94181 5.56422C8.95085 5.54157 8.96435 5.52097 8.98151 5.50364L8.62634 5.15172C8.56193 5.21672 8.51127 5.29403 8.47737 5.37904L8.94181 5.56422ZM8.92894 5.6355C8.9284 5.61111 8.93278 5.58687 8.94181 5.56422L8.47737 5.37904C8.44348 5.46404 8.42705 5.555 8.42906 5.64649L8.92894 5.6355ZM8.94494 5.70614C8.93492 5.6839 8.92948 5.65988 8.92894 5.6355L8.42906 5.64649C8.43107 5.73798 8.45149 5.82812 8.48908 5.91155L8.94494 5.70614ZM8.98726 5.76492C8.96935 5.74837 8.95496 5.72838 8.94494 5.70614L8.48908 5.91155C8.52667 5.99498 8.58068 6.06999 8.64788 6.1321L8.98726 5.76492ZM9.04919 5.80249C9.02623 5.79425 9.00517 5.78147 8.98726 5.76492L8.64788 6.1321C8.71509 6.19422 8.79411 6.24217 8.88024 6.27309L9.04919 5.80249ZM5.37893 5.49548C5.28668 5.46729 5.18952 5.45882 5.09377 5.47064L5.15502 5.96687C5.18112 5.96365 5.20761 5.96596 5.23279 5.97365L5.37893 5.49548ZM5.62925 5.6343C5.55647 5.57098 5.47118 5.52368 5.37892 5.49548L5.23279 5.97365C5.25795 5.98134 5.28121 5.99424 5.30106 6.01151L5.62925 5.6343ZM5.80136 5.86302C5.76067 5.77554 5.70202 5.69761 5.62926 5.6343L5.30106 6.01151C5.32092 6.02879 5.33691 6.05005 5.348 6.07389L5.80136 5.86302ZM5.8654 6.14201C5.86386 6.04557 5.84205 5.95051 5.80136 5.86303L5.348 6.07389C5.35909 6.09773 5.36504 6.12366 5.36546 6.14998L5.8654 6.14201ZM5.81028 6.4229C5.84815 6.33418 5.86694 6.23847 5.8654 6.14202L5.36546 6.14998C5.36588 6.17628 5.36076 6.20238 5.35043 6.22658L5.81028 6.4229ZM5.64555 6.65699C5.71628 6.59138 5.7724 6.51162 5.81028 6.4229L5.35043 6.22658C5.3401 6.25078 5.32479 6.27253 5.3055 6.29042L5.64555 6.65699ZM5.39977 6.80371C5.49108 6.77259 5.57482 6.7226 5.64555 6.65699L5.3055 6.29042C5.28622 6.30832 5.26338 6.32195 5.23847 6.33044L5.39977 6.80371ZM5.11553 6.83762C5.21161 6.84638 5.30845 6.83483 5.39976 6.80371L5.23847 6.33044C5.21357 6.33893 5.18715 6.34208 5.16095 6.33969L5.11553 6.83762ZM4.88329 6.79601C4.96842 6.82832 5.05929 6.84274 5.15024 6.83837L5.12624 6.33894C5.10392 6.34001 5.08161 6.33648 5.0607 6.32854L4.88329 6.79601ZM4.65546 6.65059C4.72061 6.71419 4.79816 6.7637 4.88329 6.79601L5.0607 6.32854C5.03981 6.32061 5.02077 6.30846 5.00477 6.29284L4.65546 6.65059ZM4.50465 6.42629C4.53897 6.51062 4.59031 6.58697 4.65546 6.65059L5.00477 6.29284C4.98878 6.27722 4.97617 6.25848 4.96774 6.23777L4.50465 6.42629ZM4.45592 6.16043C4.45373 6.25147 4.47032 6.34197 4.50465 6.42629L4.96774 6.23777C4.95931 6.21706 4.95524 6.19483 4.95578 6.17249L4.45592 6.16043ZM4.64308 5.68829C4.5214 5.81845 4.45438 5.99038 4.45586 6.16854L4.95584 6.16439C4.95543 6.11443 4.97422 6.06623 5.00833 6.02975L4.64308 5.68829ZM5.10965 5.46919C4.93178 5.4797 4.76475 5.55814 4.64308 5.68829L5.00833 6.02975C5.04244 5.99326 5.08927 5.97127 5.13914 5.96832L5.10965 5.46919ZM6.33285 8.62359C6.33353 8.64636 6.32956 8.66904 6.32119 8.69024L6.78626 8.87386C6.81956 8.78952 6.83534 8.69927 6.83262 8.60862L6.33285 8.62359ZM6.27606 8.48206C6.31169 8.51927 6.33195 8.56857 6.33277 8.62008L6.8327 8.61213C6.82988 8.43453 6.76005 8.26456 6.63721 8.13626L6.27606 8.48206ZM6.14063 8.41942C6.19206 8.42247 6.24043 8.44485 6.27606 8.48206L6.63721 8.13626C6.51436 8.00796 6.34757 7.93082 6.17026 7.9203L6.14063 8.41942ZM6.08225 8.43465C6.10536 8.42488 6.13022 8.41985 6.15533 8.41986L6.15556 7.91986C6.06352 7.91982 5.9724 7.93825 5.8876 7.97409L6.08225 8.43465ZM6.02072 8.47675C6.03821 8.45873 6.05913 8.44442 6.08225 8.43465L5.88761 7.97409C5.80282 8.00992 5.72609 8.06242 5.66198 8.12846L6.02072 8.47675ZM5.98045 8.5395C5.98953 8.5161 6.00323 8.49476 6.02072 8.47675L5.66198 8.12846C5.59786 8.19449 5.54766 8.27274 5.51434 8.35855L5.98045 8.5395ZM5.96783 8.61298C5.96708 8.58787 5.97137 8.56289 5.98045 8.5395L5.51434 8.35855C5.48103 8.44437 5.4653 8.53599 5.46806 8.62798L5.96783 8.61298ZM6.0245 8.74318C5.98949 8.70909 5.96916 8.66268 5.96785 8.61382L5.46803 8.62715C5.47281 8.80628 5.54734 8.97648 5.67576 9.10148L6.0245 8.74318ZM6.15535 8.79631C6.10647 8.79633 6.05952 8.77726 6.0245 8.74318L5.67576 9.10148C5.80418 9.22647 5.97634 9.29638 6.15553 9.29631L6.15535 8.79631ZM6.22779 8.78428C6.20666 8.79279 6.18402 8.79691 6.16123 8.79638L6.14966 9.29625C6.24031 9.29834 6.33044 9.28196 6.41457 9.24809L6.22779 8.78428ZM6.28417 8.74687C6.26811 8.76304 6.24892 8.77577 6.22779 8.78428L6.41457 9.24809C6.49869 9.21421 6.57503 9.16355 6.63892 9.09922L6.28417 8.74687ZM6.32119 8.69024C6.31283 8.71143 6.30023 8.7307 6.28417 8.74687L6.63893 9.09922C6.70283 9.03488 6.75296 8.9582 6.78626 8.87386L6.32119 8.69024ZM8.10913 8.27717C8.11215 8.46804 8.20146 8.63807 8.3216 8.7566C8.44122 8.87461 8.61316 8.96258 8.80492 8.95619L8.78826 8.45647C8.76128 8.45737 8.71629 8.44362 8.67276 8.40067C8.62975 8.35823 8.60968 8.30805 8.60906 8.26923L8.10913 8.27717ZM8.22817 7.89936C8.15332 8.00793 8.11193 8.13607 8.10915 8.26793L8.60904 8.27848C8.60976 8.24439 8.62046 8.21125 8.63982 8.18318L8.22817 7.89936ZM8.53032 7.65706C8.40807 7.70655 8.30303 7.79079 8.22817 7.89936L8.63982 8.18318C8.65918 8.1551 8.68634 8.13332 8.71794 8.12052L8.53032 7.65706ZM8.91594 7.62094C8.78664 7.59502 8.65257 7.60757 8.53032 7.65706L8.71794 8.12052C8.74954 8.10773 8.78421 8.10448 8.81765 8.11119L8.91594 7.62094ZM9.25783 7.80291C9.16411 7.71013 9.04524 7.64686 8.91594 7.62094L8.81765 8.11119C8.85109 8.11789 8.88182 8.13425 8.90605 8.15824L9.25783 7.80291ZM9.44323 8.14296C9.41601 8.01391 9.35154 7.89569 9.25783 7.80291L8.90605 8.15824C8.93029 8.18223 8.94696 8.21281 8.954 8.24616L9.44323 8.14296ZM9.41098 8.52892C9.45924 8.40619 9.47045 8.272 9.44323 8.14296L8.954 8.24616C8.96104 8.27952 8.95814 8.31422 8.94566 8.34596L9.41098 8.52892ZM9.17173 8.83349C9.27954 8.75754 9.36273 8.65165 9.41098 8.52892L8.94566 8.34597C8.93318 8.3777 8.91167 8.40508 8.88379 8.42472L9.17173 8.83349ZM8.80438 8.95621C8.93619 8.9521 9.06391 8.90943 9.17173 8.83349L8.88379 8.42472C8.85592 8.44435 8.82289 8.45539 8.78881 8.45645L8.80438 8.95621ZM7.42009 4.52626C7.42174 4.57639 7.40406 4.62524 7.37071 4.66271L7.74415 4.99518C7.8628 4.86191 7.92569 4.68814 7.91982 4.50981L7.42009 4.52626ZM7.40625 4.45371C7.41525 4.47417 7.41991 4.49625 7.41996 4.51857L7.91996 4.5175C7.91976 4.42623 7.90069 4.336 7.86397 4.25247L7.40625 4.45371ZM7.36773 4.39978C7.38415 4.41491 7.39726 4.43326 7.40625 4.45372L7.86397 4.25247C7.82724 4.16895 7.77365 4.0939 7.70652 4.03206L7.36773 4.39978ZM7.31083 4.3658C7.33194 4.37309 7.35131 4.38466 7.36773 4.39978L7.70652 4.03206C7.6394 3.97022 7.56022 3.92294 7.47397 3.89316L7.31083 4.3658ZM7.24508 4.35745C7.26733 4.35567 7.28972 4.35851 7.31083 4.3658L7.47397 3.89316C7.38771 3.86339 7.29622 3.85177 7.20525 3.85904L7.24508 4.35745ZM7.16482 4.37436C7.18655 4.36445 7.21001 4.35892 7.23387 4.35809L7.21646 3.85839C7.12692 3.86151 7.03888 3.88225 6.95737 3.91942L7.16482 4.37436ZM7.10726 4.41582C7.12353 4.39836 7.14309 4.38427 7.16482 4.37436L6.95737 3.91942C6.87586 3.95659 6.80247 4.00946 6.7414 4.07502L7.10726 4.41582ZM7.06997 4.47617C7.07831 4.45381 7.09098 4.4333 7.10726 4.41582L6.7414 4.07503C6.68034 4.14058 6.63279 4.21752 6.60149 4.30147L7.06997 4.47617ZM7.05864 4.5462C7.05778 4.52234 7.06163 4.49854 7.06998 4.47617L6.60149 4.30147C6.57019 4.38542 6.55574 4.47471 6.55897 4.56424L7.05864 4.5462ZM7.1265 4.66787C7.0875 4.63157 7.06297 4.58237 7.05747 4.52938L6.56014 4.58106C6.57815 4.75433 6.65833 4.91519 6.78584 5.03387L7.1265 4.66787ZM7.26959 4.72681C7.21633 4.72511 7.16549 4.70417 7.1265 4.66787L6.78584 5.03387C6.91336 5.15255 7.07956 5.221 7.25366 5.22655L7.26959 4.72681ZM7.37071 4.66271C7.33736 4.70017 7.29088 4.72338 7.24089 4.72754L7.28236 5.22582C7.46017 5.21102 7.6255 5.12845 7.74415 4.99518L7.37071 4.66271Z" fill="#5A3F18"/>
</svg>
