<svg width="29" height="28" viewBox="0 0 29 28" fill="none" xmlns="http://www.w3.org/2000/svg">
<g clip-path="url(#clip0_85_70)">
<path d="M26.8046 22.8172H21.0443C21.0396 22.8172 21.0348 22.8174 21.0301 22.8173C20.9224 22.8173 20.8281 22.7449 20.8001 22.6401L19.7978 18.8997H19.8934C21.1092 18.8997 22.0984 17.9105 22.0984 16.6946V14.7867C22.0984 13.5709 21.1092 12.5817 19.8934 12.5817H10.1314L9.47129 10.1182H16.3797C16.7487 10.1182 17.0479 9.81904 17.0479 9.45C17.0479 9.08096 16.7487 8.78181 16.3797 8.78181H9.1132L7.38766 2.34202C7.01821 0.963068 5.76408 0 4.33789 0C4.06239 0 3.78683 0.0364166 3.51875 0.108247C1.83624 0.559078 0.834212 2.29471 1.28498 3.97722L4.65608 16.5583C5.02546 17.9371 6.27959 18.9 7.70592 18.9C7.72049 18.9 7.73499 18.8999 7.74955 18.8997H13.1508V26.6636H7.78884C7.4198 26.6636 7.12065 26.9628 7.12065 27.3318C7.12065 27.7008 7.4198 28 7.78884 28H19.8492C20.2183 28 20.5174 27.7008 20.5174 27.3318C20.5174 26.9628 20.2183 26.6636 19.8492 26.6636H14.4873V18.8997H18.4143L19.5093 22.9861C19.6943 23.6767 20.3174 24.1537 21.0298 24.1537C21.0362 24.1537 21.0425 24.1537 21.0489 24.1536H26.8046C27.1737 24.1536 27.4728 23.8545 27.4728 23.4854C27.4728 23.1164 27.1737 22.8172 26.8046 22.8172ZM3.86461 1.39906C4.01989 1.3575 4.17912 1.33639 4.33789 1.33639C5.16037 1.33639 5.88362 1.89212 6.09684 2.68794L7.72971 8.78187H3.95588L2.57586 3.63137C2.31573 2.66061 2.89385 1.65919 3.86461 1.39906ZM7.74474 17.5633C7.74127 17.5633 7.73779 17.5634 7.73425 17.5634L7.70592 17.5636C6.88344 17.5636 6.16005 17.008 5.9469 16.2124L4.31397 10.1182H8.08773L8.97322 13.4228C9.05146 13.7149 9.3162 13.9181 9.61862 13.9181H19.8934C20.3723 13.9181 20.762 14.3078 20.762 14.7867V16.6946C20.762 17.1737 20.3723 17.5633 19.8934 17.5633H7.74474V17.5633Z" fill="#111111"/>
</g>
<defs>
<clipPath id="clip0_85_70">
<rect width="28" height="28" fill="white" transform="translate(0.324951)"/>
</clipPath>
</defs>
</svg>
